<svg width="26" height="23" viewBox="0 0 26 23" fill="none" xmlns="http://www.w3.org/2000/svg">
<path d="M25.7772 20.5383L14.4135 0.815806C13.7854 -0.271935 12.215 -0.271935 11.5869 0.815806L0.223192 20.5383C-0.404951 21.626 0.365955 23 1.62224 23H24.3496C25.6345 23 26.4054 21.626 25.7772 20.5383ZM12.6433 6.85563C13.3286 6.68388 14.0138 7.02738 14.3279 7.65713C14.4421 7.88612 14.4706 8.14375 14.4421 8.37275C14.385 9.08836 14.3564 9.80398 14.3279 10.5482C14.2708 11.6646 14.1851 12.8096 14.128 13.9259C14.0995 14.2694 14.0995 14.6129 14.0709 14.9851C14.0424 15.5862 13.5855 16.0442 12.9859 16.0442C12.4149 16.0442 11.9295 15.5862 11.901 15.0137C11.8153 13.2676 11.7011 11.5215 11.6154 9.77536C11.5869 9.31736 11.5583 8.83074 11.5298 8.37275C11.5298 7.68575 11.9866 7.02738 12.6433 6.85563ZM13.0145 19.9658C12.215 19.9658 11.5869 19.3074 11.5869 18.5059C11.5869 17.7044 12.2436 17.046 13.043 17.046C13.8425 17.046 14.4706 17.7044 14.4706 18.5345C14.4421 19.3074 13.7854 19.9658 13.0145 19.9658Z" fill="#E63636"/>
</svg>
