<svg width="28" height="18" viewBox="0 0 28 18" fill="none" xmlns="http://www.w3.org/2000/svg">
<path d="M14 18C6.44635 18 0.369099 9.74855 0.128755 9.40039C-0.0429185 9.15667 -0.0429185 8.84333 0.128755 8.59961C0.369099 8.25145 6.44635 0 14 0C21.5536 0 27.6309 8.25145 27.8712 8.59961C28.0429 8.84333 28.0429 9.15667 27.8712 9.40039C27.6309 9.74855 21.5536 18 14 18ZM14 1.35783C8.40343 1.35783 3.5279 6.54545 1.70815 8.77369L1.53648 8.98259L1.70815 9.19149C3.5279 11.4197 8.3691 16.6073 14 16.6073C19.6309 16.6073 24.4721 11.4197 26.2918 9.19149L26.4635 8.98259L26.2918 8.77369C24.4721 6.54545 19.6309 1.35783 14 1.35783Z" fill="#311414"/>
<path d="M14 15C10.6982 15 8 12.3018 8 9C8 5.69823 10.6982 3 14 3C17.3018 3 20 5.69823 20 9C20 12.3018 17.3018 15 14 15ZM13.858 4.42012C11.3728 4.42012 9.34911 6.37278 9.27811 8.85799C9.2071 11.3787 11.1953 13.5089 13.716 13.6154C13.7515 13.6154 13.8225 13.6154 13.858 13.6154C16.3432 13.6154 18.3669 11.6627 18.4379 9.17752C18.4379 9.14201 18.4379 9.07101 18.4379 9.0355C18.4734 6.5503 16.4852 4.49113 14 4.45562C13.9645 4.42012 13.929 4.42012 13.858 4.42012Z" fill="#311414"/>
</svg>
