<svg width="26" height="28" viewBox="0 0 26 28" fill="none" xmlns="http://www.w3.org/2000/svg">
<path d="M17.3221 0.771849C17.3221 -0.257283 18.9562 -0.257283 18.9562 0.771849V2.35513H22.0611C24.1038 2.35513 25.8197 4.01757 25.8197 6.07584V23.6502C25.8197 25.7085 24.1038 27.371 22.0611 27.371H3.84027C1.71587 27.371 0 25.7085 0 23.6502V6.07584C0 4.01757 1.71587 2.35513 3.84027 2.35513H6.94518V0.771849C6.94518 -0.257283 8.57934 -0.257283 8.57934 0.771849V2.35513H17.3221V0.771849ZM18.9562 3.93841V5.52169C18.9562 6.55082 17.3221 6.55082 17.3221 5.52169V3.93841H8.57934V5.52169C8.57934 6.55082 6.94518 6.55082 6.94518 5.52169V3.93841H3.84027C2.61465 3.93841 1.63416 4.88838 1.63416 6.07584V9.0049H24.1856V6.07584C24.1856 4.88838 23.2051 3.93841 22.0611 3.93841H18.9562ZM1.63416 10.5882V23.6502C1.63416 24.8377 2.61465 25.7877 3.84027 25.7877H22.0611C23.2051 25.7877 24.1856 24.8377 24.1856 23.6502V10.5882H1.63416Z" fill="#302828"/>
<path d="M7.84397 17.0005C7.1086 16.2088 8.25251 15.1005 8.98788 15.8922L11.9294 18.6629L16.8318 13.9131C17.5672 13.1214 18.7111 14.3089 17.9758 15.0214L12.5013 20.3254C12.1745 20.642 11.6842 20.642 11.3574 20.3254L7.84397 17.0005Z" fill="#302828"/>
</svg>
