<svg width="44" height="43" viewBox="0 0 44 43" fill="none" xmlns="http://www.w3.org/2000/svg">
<path d="M8.75619 34.4087C8.71219 34.4087 8.66819 34.4087 8.58019 34.3647C8.36019 34.3206 8.18419 34.1444 8.14019 33.9241C8.14019 33.8801 8.14019 33.836 8.09619 33.7919V33.7479V7.31346C8.09619 7.22534 8.09619 7.22534 8.14019 7.13723C8.22819 6.91694 8.40419 6.74071 8.62419 6.69666C8.66819 6.69666 8.71219 6.69666 8.75619 6.69666H8.84419H8.88819H8.93219C8.97619 6.69666 9.02019 6.74071 9.06419 6.74071C9.19619 6.82883 9.32819 6.961 9.37219 7.09317C9.37219 7.13723 9.41619 7.18129 9.41619 7.22534V7.2694V33.043H35.2442H35.3322C35.3762 33.043 35.3762 33.043 35.4202 33.043C35.5522 33.087 35.6402 33.1751 35.7282 33.2633C35.8602 33.4395 35.9042 33.7038 35.8162 33.8801C35.7722 33.9241 35.7722 34.0122 35.7282 34.0563C35.6842 34.1003 35.6402 34.1444 35.5962 34.1885C35.5082 34.2325 35.4202 34.2766 35.3322 34.2766H35.2002H8.75619V34.4087Z" fill="#311414"/>
<path d="M10.9558 25.6414C10.9118 25.6414 10.8238 25.6414 10.7798 25.5973C10.5598 25.5092 10.3838 25.333 10.3398 25.1127C10.3398 25.0246 10.3398 24.9364 10.3398 24.8483C10.3398 24.7602 10.3838 24.6721 10.4718 24.628L10.5158 24.584L14.9158 20.1782L19.3158 15.7285L19.3598 15.6844C19.4038 15.6403 19.4478 15.6403 19.4918 15.5963C19.5798 15.5522 19.6678 15.5522 19.7558 15.5522C19.8438 15.5522 19.9318 15.5522 20.0198 15.5963C20.0638 15.6403 20.1078 15.6403 20.1518 15.6844L20.2398 15.7725L24.1558 19.7377L28.1158 15.7285L32.5598 11.3227C32.6038 11.3227 32.6038 11.2787 32.6038 11.2787C32.6918 11.2346 32.7798 11.1905 32.8678 11.1465C32.9118 11.1465 32.9558 11.1465 32.9998 11.1465H33.0878H33.1318C33.1758 11.1465 33.2198 11.1905 33.2638 11.1905C33.4398 11.2787 33.5278 11.4108 33.5718 11.5871C33.5718 11.6311 33.5718 11.6752 33.6158 11.7192V11.7633V16.125V16.169C33.6158 16.2571 33.5718 16.3453 33.5278 16.4334C33.3958 16.6096 33.2198 16.7418 32.9998 16.7418H32.9558C32.9118 16.7418 32.8678 16.7418 32.7798 16.6977C32.6918 16.6537 32.6038 16.6096 32.5598 16.5655C32.4718 16.4774 32.4278 16.3893 32.3838 16.2571C32.3838 16.2131 32.3838 16.169 32.3838 16.125V16.0809V13.2612L31.6358 14.0102C28.9078 16.6977 28.3358 17.2705 25.6518 20.002L24.6398 21.0594L24.5958 21.1035C24.5518 21.1475 24.5078 21.1475 24.4638 21.1916C24.3758 21.2356 24.2878 21.2356 24.1998 21.2356C24.1118 21.2356 24.0238 21.2356 23.9358 21.1916C23.8918 21.1475 23.8478 21.1475 23.8038 21.1035L23.7158 21.0153L19.7998 17.0502L15.8398 21.0594L11.4398 25.4651C11.3958 25.5092 11.3518 25.5092 11.3078 25.5532C11.2198 25.5973 11.0878 25.6414 10.9558 25.6414Z" fill="#311414"/>
<path d="M31.5481 12.4243C31.1081 12.4243 30.6241 12.4243 30.1841 12.4243H29.9641C29.5241 12.4243 29.0401 12.4243 28.6001 12.4243C28.5121 12.4243 28.4241 12.4243 28.3361 12.3802C28.2481 12.3361 28.2041 12.2921 28.1601 12.248C28.1161 12.204 28.0721 12.1599 28.0281 12.0718C27.9401 11.8515 27.9401 11.6312 28.0721 11.4109C28.1161 11.3669 28.1601 11.3228 28.2041 11.2788C28.2921 11.2347 28.3801 11.1907 28.4681 11.1466C28.5121 11.1466 28.5561 11.1466 28.6001 11.1466C29.3481 11.1025 30.0961 11.1025 30.8441 11.1025C31.5921 11.1025 32.3401 11.1025 33.0881 11.1466C33.2201 11.1466 33.3081 11.1907 33.3521 11.2347C33.4401 11.2788 33.4841 11.3228 33.5281 11.3669C33.6601 11.5431 33.7041 11.7634 33.6601 11.9837C33.6601 12.0277 33.6161 12.1159 33.5721 12.1599C33.5281 12.204 33.4841 12.248 33.4401 12.2921C33.3521 12.3361 33.2641 12.3802 33.1761 12.4243C33.1321 12.4243 33.0881 12.4243 33.0441 12.4243C32.5601 12.4243 32.0321 12.4243 31.5481 12.4243Z" fill="#311414"/>
</svg>
