<svg width="26" height="26" viewBox="0 0 26 26" fill="none" xmlns="http://www.w3.org/2000/svg">
<path d="M25.6249 9.89099C25.394 9.65962 25.1054 9.54394 24.8169 9.54394H22.7392C22.3929 9.54394 22.2486 9.25473 22.2198 9.19689C22.1909 9.11012 22.1043 8.82091 22.3352 8.56062L23.8069 7.08565C24.0377 6.85428 24.1532 6.56507 24.1532 6.27586C24.1532 5.95773 24.0377 5.66852 23.8069 5.46607L20.5461 2.16908C20.0844 1.70634 19.3629 1.70634 18.9012 2.16908L17.4295 3.64405C17.1698 3.90434 16.8812 3.78865 16.7947 3.75973C16.737 3.73081 16.4484 3.58621 16.4484 3.23915V1.15684C16.4484 0.83871 16.333 0.549499 16.1021 0.347052C15.9001 0.115684 15.6115 0 15.323 0H10.7059C10.3885 0 10.0999 0.115684 9.86903 0.318131C9.66704 0.549499 9.55161 0.83871 9.52275 1.15684V3.23915C9.52275 3.58621 9.23418 3.73081 9.17647 3.78865C9.11876 3.8465 8.80133 3.90434 8.54162 3.67297L7.06992 2.198C6.83907 1.96663 6.5505 1.85095 6.26193 1.85095C5.94451 1.85095 5.65594 1.96663 5.45394 2.198L2.16426 5.43715C1.70255 5.89989 1.70255 6.62291 2.16426 7.08565L3.63596 8.56062C3.89567 8.82091 3.78024 9.11012 3.75139 9.19689C3.72253 9.28365 3.57825 9.54394 3.20311 9.54394H1.12542C0.807991 9.54394 0.519423 9.65962 0.317425 9.89099C0.115427 10.0645 0 10.3826 0 10.6719V15.2992C0 15.9355 0.519423 16.4561 1.15427 16.4561H3.23196C3.57825 16.4561 3.72253 16.7453 3.78024 16.8031C3.83796 16.861 3.89567 17.1791 3.66482 17.4394L2.19312 18.9144C1.73141 19.3771 1.73141 20.1001 2.19312 20.5628L5.45394 23.8309C5.91565 24.2937 6.63707 24.2937 7.09878 23.8309L8.57048 22.356C8.83019 22.0957 9.11876 22.1824 9.20533 22.2403C9.2919 22.2981 9.55161 22.4138 9.55161 22.7608V24.8432C9.55161 25.4794 10.071 26 10.7059 26H15.323C15.6404 26 15.929 25.8843 16.131 25.6529C16.3618 25.4216 16.4772 25.1324 16.4772 24.8432V22.7608C16.4772 22.4138 16.7658 22.2692 16.8235 22.2403C16.9101 22.2113 17.1987 22.1246 17.4584 22.356L18.9301 23.8309C19.3918 24.2937 20.1132 24.2937 20.5749 23.8309L23.8357 20.5628C24.2974 20.1001 24.2974 19.3771 23.8357 18.9144L22.364 17.4394C22.1043 17.1791 22.1909 16.8899 22.2486 16.8031C22.3063 16.7164 22.4218 16.4561 22.768 16.4561H24.8457C25.4806 16.4561 26 15.9355 26 15.2992V10.6719C25.9711 10.4116 25.8557 10.1224 25.6249 9.89099ZM24.8169 10.7297V15.3571H22.7392C22.0178 15.3571 21.4118 15.762 21.1521 16.4271C20.8923 17.0923 21.0366 17.8154 21.5272 18.307L22.9989 19.782L19.7092 23.0501L18.2375 21.5751C17.7181 21.0545 17.0255 20.9388 16.3618 21.1991C15.6981 21.4594 15.2941 22.0667 15.2941 22.7898V24.8721H10.677V22.7898C10.677 22.0667 10.273 21.4594 9.60932 21.1702C9.37847 21.0834 9.14761 21.0256 8.94562 21.0256C8.51276 21.0256 8.07991 21.1991 7.73363 21.5462L6.26193 23.0211L2.97225 19.7531L4.44395 18.2781C4.96337 17.7575 5.0788 17.0634 4.81909 16.3982C4.55938 15.733 3.95339 15.3281 3.23196 15.3281H1.15427V10.7008H3.23196C3.95339 10.7008 4.55938 10.2959 4.81909 9.6307C5.10766 8.96552 4.96337 8.24249 4.44395 7.75083L2.97225 6.27586L6.23307 3.00779L7.70477 4.48276C8.2242 5.00334 8.94562 5.11902 9.58047 4.85873C10.2442 4.59844 10.6482 3.96218 10.6482 3.26808L10.677 1.15684H15.2941V3.23915C15.2941 3.96218 15.6981 4.56952 16.3618 4.82981C17.0255 5.11902 17.7469 4.97442 18.2375 4.45384L19.7092 2.97887L22.97 6.24694L21.4983 7.72191C20.9789 8.24249 20.8635 8.96552 21.1232 9.60178C21.3829 10.267 22.0178 10.6719 22.7103 10.6719L24.8169 10.7297ZM12.9856 8.3871C10.4462 8.3871 8.36848 10.4694 8.36848 13.0145C8.36848 15.5595 10.4462 17.6418 12.9856 17.6418C15.525 17.6418 17.6027 15.5595 17.6027 13.0145C17.6027 10.4694 15.525 8.3871 12.9856 8.3871ZM12.9856 16.485C11.081 16.485 9.52275 14.9232 9.52275 13.0145C9.52275 11.1057 11.081 9.54394 12.9856 9.54394C14.8901 9.54394 16.4484 11.1057 16.4484 13.0145C16.4484 14.9232 14.8901 16.485 12.9856 16.485Z" fill="#311414"/>
</svg>
