<svg width="43" height="39" viewBox="0 0 43 39" fill="none" xmlns="http://www.w3.org/2000/svg">
<path d="M42.9999 38.2662V5.44063C42.9999 5.25143 42.9245 5.06998 42.7904 4.93619C42.6563 4.80241 42.4744 4.72725 42.2847 4.72725H34.0804V2.34762C34.0789 2.03647 34.0159 1.72867 33.8949 1.44186C33.7739 1.15505 33.5974 0.894888 33.3754 0.676278C32.9249 0.242574 32.3233 0.000191465 31.6972 0.000191465C31.0711 0.000191465 30.4695 0.242574 30.0191 0.676278C29.5785 1.11968 29.3308 1.71828 29.3294 2.34253V4.72215H24.0114V2.34762C24.0105 2.03517 23.9472 1.72601 23.8253 1.43819C23.7034 1.15037 23.5253 0.88963 23.3013 0.671182C22.8514 0.240492 22.2519 0 21.6283 0C21.0046 0 20.4052 0.240492 19.9552 0.671182C19.5147 1.11458 19.2669 1.71318 19.2656 2.33743V4.71706H13.7126V2.34762C13.7141 2.03693 13.6535 1.72906 13.5342 1.44206C13.4149 1.15506 13.2393 0.894709 13.0178 0.676278C12.5682 0.242903 11.9674 0.000663323 11.3422 0.000663323C10.717 0.000663323 10.1162 0.242903 9.66657 0.676278C9.44751 0.895205 9.27385 1.15505 9.15552 1.44095C9.03718 1.72685 8.97649 2.03322 8.97692 2.34253V4.72215H0.91051C0.720828 4.72215 0.538915 4.79731 0.404789 4.9311C0.270663 5.06488 0.195313 5.24633 0.195312 5.43553V32.2993C0.195743 32.4281 0.231113 32.5544 0.297669 32.6647C0.364226 32.7751 0.459486 32.8654 0.573345 32.9261L11.6896 38.9134C11.795 38.9693 11.9124 38.9991 12.0318 39H42.2847C42.3804 39 42.4751 38.9809 42.5632 38.9438C42.6513 38.9067 42.7311 38.8523 42.7978 38.7839C42.8645 38.7155 42.9167 38.6344 42.9514 38.5455C42.9862 38.4566 43.0026 38.3616 42.9999 38.2662Z" fill="white"/>
<path d="M30.6343 1.97486C30.6339 1.70821 30.7283 1.45149 30.8979 1.25718C31.0806 1.06491 31.3248 0.955388 31.5803 0.951187C31.7057 0.950454 31.8299 0.976391 31.9459 1.02751C32.0619 1.07862 32.1674 1.15391 32.2563 1.24904C32.3452 1.34417 32.4157 1.45726 32.4638 1.58183C32.5119 1.70639 32.5367 1.83996 32.5367 1.97486V8.53413C32.5352 8.66928 32.5089 8.80277 32.4592 8.92691C32.4095 9.05104 32.3374 9.16336 32.2472 9.25737C32.0577 9.42222 31.8214 9.51215 31.5777 9.51215C31.3341 9.51215 31.0978 9.42222 30.9083 9.25737C30.7327 9.06406 30.6343 8.80447 30.6343 8.53413V1.97486Z" fill="#03A2FD"/>
<path d="M21.1324 1.97405C21.131 1.7052 21.2287 1.44669 21.404 1.25502C21.5793 1.06336 21.8181 0.954121 22.0681 0.951187C22.1935 0.950454 22.3177 0.976371 22.4337 1.02745C22.5497 1.07852 22.6552 1.15375 22.7441 1.2488C22.833 1.34386 22.9035 1.45686 22.9516 1.58133C22.9997 1.70579 23.0245 1.83925 23.0245 1.97405V8.52813C23.0233 8.66189 22.9975 8.79408 22.9488 8.91713C22.9 9.04019 22.8291 9.15168 22.7402 9.24524C22.5529 9.41749 22.3146 9.51215 22.0681 9.51215C21.8217 9.51215 21.5833 9.41749 21.3961 9.24524C21.2205 9.05209 21.1221 8.7927 21.1221 8.52257L21.1324 1.97405Z" fill="#03A2FD"/>
<path d="M10.6587 5.33132V1.97094C10.6575 1.7696 10.7124 1.57244 10.8166 1.4046C10.9207 1.23677 11.0693 1.10589 11.2434 1.02866C11.4176 0.951432 11.6093 0.931361 11.7941 0.971008C11.9789 1.01065 12.1485 1.10822 12.2812 1.25126C12.3703 1.34536 12.4409 1.45746 12.489 1.58103C12.537 1.70459 12.5615 1.83714 12.5611 1.97094V8.49793C12.5613 8.6988 12.5056 8.8952 12.4011 9.06218C12.2965 9.22916 12.1479 9.35917 11.974 9.43571C11.8001 9.51225 11.6088 9.53186 11.4245 9.49204C11.2401 9.45222 11.071 9.35478 10.9386 9.21208C10.8497 9.11901 10.7792 9.00788 10.7311 8.88523C10.683 8.76258 10.6584 8.6309 10.6587 8.49793V5.33132Z" fill="#03A2FD"/>
<path d="M41.0727 37.0975H12.4112L2.09766 31.4175V5.70728H9.26927V7.90795C9.26923 8.21879 9.3296 8.52655 9.44689 8.81337C9.56417 9.10019 9.73604 9.36038 9.95252 9.57884C10.391 10.0091 10.9754 10.2494 11.5833 10.2494C12.1913 10.2494 12.7757 10.0091 13.2142 9.57884C13.4333 9.36221 13.6073 9.10248 13.7256 8.81532C13.8439 8.52815 13.904 8.2195 13.9024 7.90795V5.70728H19.3185V7.90795C19.3163 8.3764 19.4507 8.8349 19.7046 9.22502C19.9585 9.61514 20.3203 9.9192 20.744 10.0984C21.1677 10.2777 21.6341 10.324 22.0837 10.2314C22.5333 10.1389 22.9457 9.91172 23.2684 9.57884C23.4869 9.36167 23.6604 9.10184 23.7786 8.8148C23.8969 8.52776 23.9574 8.21937 23.9566 7.90795V5.70728H29.1583V7.90795C29.1579 8.21839 29.2176 8.52585 29.334 8.81261C29.4504 9.09938 29.6212 9.35979 29.8365 9.57884C30.2752 10.0106 30.8607 10.2518 31.4698 10.2518C32.079 10.2518 32.6645 10.0106 33.1032 9.57884C33.3202 9.35978 33.4924 9.09876 33.6097 8.81102C33.7271 8.52327 33.7871 8.21455 33.7864 7.90286V5.70728H41.0977V37.0975H41.0727Z" fill="white"/>
<path d="M14.7508 22.8292H8.46892C8.29288 22.8292 8.12406 22.9035 7.99958 23.0358C7.87511 23.1681 7.80518 23.3474 7.80518 23.5345V27.8313C7.80518 27.9239 7.82234 28.0156 7.8557 28.1012C7.88906 28.1868 7.93795 28.2645 7.99958 28.33C8.06121 28.3955 8.13439 28.4474 8.21491 28.4829C8.29544 28.5183 8.38175 28.5365 8.46892 28.5365H14.7508C14.8379 28.5365 14.9242 28.5183 15.0048 28.4829C15.0853 28.4474 15.1585 28.3955 15.2201 28.33C15.2817 28.2645 15.3306 28.1868 15.364 28.1012C15.3973 28.0156 15.4145 27.9239 15.4145 27.8313V23.5546C15.4177 23.4601 15.4029 23.366 15.3709 23.2777C15.3389 23.1895 15.2905 23.1091 15.2284 23.0413C15.1664 22.9735 15.0921 22.9198 15.01 22.8834C14.9279 22.8469 14.8397 22.8285 14.7508 22.8292ZM14.087 27.1261H9.13266V24.2397H14.087V27.1261Z" fill="#03A2FD"/>
<path d="M14.7511 16.1708H8.46895C8.29291 16.1708 8.12407 16.2451 7.99959 16.3774C7.87511 16.5096 7.80518 16.689 7.80518 16.876V21.1729C7.80518 21.3599 7.87511 21.5393 7.99959 21.6715C8.12407 21.8038 8.29291 21.8781 8.46895 21.8781H14.7511C14.9272 21.8781 15.096 21.8038 15.2205 21.6715C15.345 21.5393 15.4149 21.3599 15.4149 21.1729V16.876C15.4155 16.7832 15.3988 16.6912 15.3657 16.6054C15.3325 16.5195 15.2837 16.4415 15.2219 16.3759C15.1601 16.3102 15.0867 16.2583 15.0059 16.2231C14.9251 16.1879 14.8385 16.1701 14.7511 16.1708ZM14.0874 20.4626H9.13273V17.5812H14.0874V20.4626Z" fill="#03A2FD"/>
<path d="M27.7808 16.876V21.1729C27.7808 21.3599 27.8507 21.5393 27.9752 21.6715C28.0997 21.8038 28.2685 21.8781 28.4445 21.8781H34.7267C34.9028 21.8781 35.0716 21.8038 35.1961 21.6715C35.3206 21.5393 35.3905 21.3599 35.3905 21.1729V16.876C35.3905 16.689 35.3206 16.5096 35.1961 16.3773C35.0716 16.2451 34.9028 16.1708 34.7267 16.1708H28.4445C28.2685 16.1708 28.0997 16.2451 27.9752 16.3773C27.8507 16.5096 27.7808 16.689 27.7808 16.876ZM29.1083 17.5812H34.063V20.4626H29.1083V17.5812Z" fill="#03A2FD"/>
<path d="M25.1313 22.8292H18.0641C17.8661 22.8292 17.6761 22.9035 17.5361 23.0358C17.3961 23.168 17.3174 23.3474 17.3174 23.5345V27.8313C17.3174 27.9239 17.3367 28.0156 17.3742 28.1012C17.4117 28.1868 17.4668 28.2645 17.5361 28.33C17.6054 28.3955 17.6878 28.4474 17.7783 28.4829C17.8689 28.5183 17.966 28.5365 18.0641 28.5365H25.1313C25.2294 28.5365 25.3265 28.5183 25.4171 28.4829C25.5077 28.4474 25.59 28.3955 25.6593 28.33C25.7287 28.2645 25.7837 28.1868 25.8212 28.1012C25.8587 28.0156 25.8781 27.9239 25.8781 27.8313V23.5546C25.8809 23.4603 25.8637 23.3664 25.8275 23.2785C25.7912 23.1906 25.7367 23.1105 25.667 23.0429C25.5974 22.9752 25.5141 22.9215 25.4221 22.8848C25.3301 22.8481 25.2312 22.8292 25.1313 22.8292ZM24.3953 27.1261H18.8108V24.2397H24.3953V27.1261Z" fill="#03A2FD"/>
<path d="M34.7265 22.8292H28.4445C28.2685 22.8292 28.0996 22.9035 27.9752 23.0358C27.8507 23.168 27.7808 23.3474 27.7808 23.5345V27.8313C27.7808 27.9239 27.7979 28.0156 27.8313 28.1012C27.8646 28.1868 27.9135 28.2645 27.9752 28.33C28.0368 28.3955 28.11 28.4474 28.1905 28.4829C28.271 28.5183 28.3574 28.5365 28.4445 28.5365H34.7265C34.8137 28.5365 34.9 28.5183 34.9805 28.4829C35.061 28.4474 35.1342 28.3955 35.1958 28.33C35.2575 28.2645 35.3064 28.1868 35.3397 28.1012C35.3731 28.0156 35.3902 27.9239 35.3902 27.8313V23.5546C35.3928 23.4603 35.3775 23.3664 35.3453 23.2785C35.313 23.1906 35.2646 23.1105 35.2027 23.0429C35.1408 22.9752 35.0667 22.9215 34.985 22.8848C34.9032 22.8481 34.8153 22.8292 34.7265 22.8292ZM34.0627 27.1261H29.1083V24.2397H34.0627V27.1261Z" fill="#03A2FD"/>
<path d="M25.1316 16.1708H18.0641C17.8661 16.1708 17.6761 16.2451 17.5361 16.3773C17.3961 16.5096 17.3174 16.689 17.3174 16.876V21.1729C17.3174 21.3599 17.3961 21.5393 17.5361 21.6715C17.6761 21.8038 17.8661 21.8781 18.0641 21.8781H25.1316C25.3297 21.8781 25.5196 21.8038 25.6596 21.6715C25.7997 21.5393 25.8784 21.3599 25.8784 21.1729V16.876C25.8784 16.689 25.7997 16.5096 25.6596 16.3773C25.5196 16.2451 25.3297 16.1708 25.1316 16.1708ZM24.3955 20.4626H18.8109V17.5812H24.3955V20.4626Z" fill="#03A2FD"/>
</svg>
