<svg width="33" height="29" viewBox="0 0 33 29" fill="none" xmlns="http://www.w3.org/2000/svg">
<path d="M32.285 26.1474L32.2847 26.1469L17.8618 1.27991L32.285 26.1474ZM32.285 26.1474C32.8877 27.1842 32.1521 28.5 30.9053 28.5H2.059C0.855976 28.5 0.10907 27.1907 0.715553 26.1474L0.715798 26.1469M32.285 26.1474L0.715798 26.1469M0.715798 26.1469L15.1387 1.27991M0.715798 26.1469L15.1387 1.27991M15.1387 1.27991C15.7431 0.240172 17.2569 0.240032 17.8616 1.27948L15.1387 1.27991ZM15.9265 8.15887L15.9265 8.15885L15.9215 8.16012C14.8437 8.44016 14.134 9.48872 14.134 10.5569V10.5726L14.1349 10.5883C14.153 10.8761 14.1711 11.173 14.1892 11.4705L14.1892 11.4716C14.2073 11.7681 14.2254 12.0652 14.2434 12.3535C14.2979 13.4551 14.3613 14.5564 14.4246 15.6554L14.4247 15.6566C14.4881 16.7578 14.5514 17.8565 14.6057 18.955L14.6057 18.9554C14.6555 19.9478 15.4956 20.7296 16.4821 20.7296C17.5188 20.7296 18.3062 19.9351 18.3583 18.9259C18.3764 18.6895 18.3856 18.4629 18.3944 18.2504L18.395 18.2334C18.4042 18.011 18.4129 17.8048 18.43 17.6005L18.4306 17.5925L18.431 17.5845C18.4671 16.8842 18.5122 16.1744 18.5575 15.4611L18.5576 15.4598C18.6029 14.7479 18.6483 14.0325 18.6847 13.3256L18.6848 13.3256L18.685 13.3192C18.7211 12.3834 18.7569 11.4944 18.8279 10.6073C18.8719 10.24 18.8266 9.81754 18.6322 9.4303C18.1352 8.44018 17.0369 7.8824 15.9265 8.15887ZM18.8662 23.3882L18.8666 23.3789V23.3696C18.8666 22.0643 17.8626 20.9928 16.5546 20.9928C15.2657 20.9928 14.2064 22.0449 14.2064 23.3335C14.2064 24.6092 15.2166 25.6742 16.5184 25.6742C17.7747 25.6742 18.8203 24.6224 18.8662 23.3882Z" fill="white" stroke="white"/>
</svg>
