<svg width="51" height="50" viewBox="0 0 51 50" fill="none" xmlns="http://www.w3.org/2000/svg">
<path d="M37.5941 16.8036L31.2056 25.6292L32.3193 26.4426L38.7078 17.6171L37.5941 16.8036Z" fill="white"/>
<path d="M22.5786 22.7917L21.6826 23.8419L25.5938 27.2088L26.4898 26.1585L22.5786 22.7917Z" fill="white"/>
<path d="M17.1123 23.5682L12.3867 29.7409L13.4783 30.5841L18.2039 24.4114L17.1123 23.5682Z" fill="white"/>
<path d="M40.0859 18.5451C37.8419 18.5451 36.0059 16.7008 36.0059 14.4467C36.0059 12.1927 37.8419 10.3484 40.0859 10.3484C42.3299 10.3484 44.1659 12.1927 44.1659 14.4467C44.1659 16.7008 42.3299 18.5451 40.0859 18.5451ZM40.0859 11.7316C38.6069 11.7316 37.3829 12.9611 37.3829 14.4467C37.3829 15.9324 38.6069 17.1619 40.0859 17.1619C41.5649 17.1619 42.7889 15.9324 42.7889 14.4467C42.7889 12.9611 41.6159 11.7316 40.0859 11.7316Z" fill="white"/>
<path d="M29.2231 32.8893C26.9791 32.8893 25.1431 31.0451 25.1431 28.791C25.1431 26.5369 26.9791 24.6926 29.2231 24.6926C31.4671 24.6926 33.3031 26.5369 33.3031 28.791C33.3031 31.0451 31.4671 32.8893 29.2231 32.8893ZM29.2231 26.0758C27.7441 26.0758 26.5201 27.3053 26.5201 28.791C26.5201 30.2766 27.7441 31.5062 29.2231 31.5062C30.7021 31.5062 31.9261 30.2766 31.9261 28.791C31.9771 27.2541 30.7531 26.0758 29.2231 26.0758Z" fill="white"/>
<path d="M19.7372 25.3586C17.4932 25.3586 15.6572 23.5143 15.6572 21.2602C15.6572 19.0061 17.4932 17.1619 19.7372 17.1619C21.9812 17.1619 23.8172 19.0061 23.8172 21.2602C23.8172 23.5143 21.9812 25.3586 19.7372 25.3586ZM19.7372 18.5451C18.2582 18.5451 17.0342 19.7746 17.0342 21.2602C17.0342 22.7459 18.2582 23.9754 19.7372 23.9754C21.2162 23.9754 22.4402 22.7459 22.4402 21.2602C22.4402 19.7746 21.2162 18.5451 19.7372 18.5451Z" fill="white"/>
<path d="M10.914 36.9877C8.66998 36.9877 6.83398 35.1434 6.83398 32.8893C6.83398 30.6352 8.66998 28.791 10.914 28.791C13.158 28.791 14.994 30.6352 14.994 32.8893C14.994 35.1434 13.158 36.9877 10.914 36.9877ZM10.914 30.1229C9.43498 30.1229 8.21098 31.3524 8.21098 32.8381C8.21098 34.3237 9.43498 35.5533 10.914 35.5533C12.393 35.5533 13.617 34.3237 13.617 32.8381C13.617 31.3524 12.393 30.1229 10.914 30.1229Z" fill="white"/>
<path d="M10.914 35.9631C12.604 35.9631 13.974 34.5869 13.974 32.8893C13.974 31.1917 12.604 29.8156 10.914 29.8156C9.22401 29.8156 7.854 31.1917 7.854 32.8893C7.854 34.5869 9.22401 35.9631 10.914 35.9631Z" fill="white"/>
<path d="M29.2231 31.8648C30.9131 31.8648 32.2831 30.4886 32.2831 28.791C32.2831 27.0934 30.9131 25.7172 29.2231 25.7172C27.5331 25.7172 26.1631 27.0934 26.1631 28.791C26.1631 30.4886 27.5331 31.8648 29.2231 31.8648Z" fill="white"/>
<path d="M19.7368 24.334C21.4267 24.334 22.7968 22.9578 22.7968 21.2602C22.7968 19.5626 21.4267 18.1865 19.7368 18.1865C18.0468 18.1865 16.6768 19.5626 16.6768 21.2602C16.6768 22.9578 18.0468 24.334 19.7368 24.334Z" fill="white"/>
<path d="M40.0859 17.5205C41.7759 17.5205 43.1459 16.1443 43.1459 14.4467C43.1459 12.7491 41.7759 11.3729 40.0859 11.3729C38.3959 11.3729 37.0259 12.7491 37.0259 14.4467C37.0259 16.1443 38.3959 17.5205 40.0859 17.5205Z" fill="white"/>
</svg>
