<svg width="37" height="29" viewBox="0 0 37 29" fill="none" xmlns="http://www.w3.org/2000/svg">
<path d="M5.74138 29C5.57126 29 5.40115 28.9161 5.27356 28.8321C5.14598 28.7062 5.10345 28.5384 5.10345 28.3705V23.9219H2.33908C1.06322 23.9219 0 22.8726 0 21.6136V6.50506C0 5.24602 1.06322 4.19682 2.33908 4.19682H11.0575V2.30825C11.0575 1.0492 12.1207 0 13.3966 0H34.6609C35.9368 0 37 1.0492 37 2.30825V17.4168C37 18.6758 35.9368 19.725 34.6609 19.725H31.8966V24.1317C31.8966 24.2576 31.854 24.4255 31.769 24.5094C31.6414 24.6773 31.4713 24.7612 31.2586 24.7612C31.131 24.7612 31.0034 24.7193 30.8759 24.6353L26.1126 21.11L25.9 22.0753C25.6874 23.1245 24.7092 23.9219 23.6034 23.9219H12.7586L6.12414 28.8741C5.99655 28.9161 5.86897 29 5.74138 29ZM2.33908 5.45586C1.74368 5.45586 1.27586 5.91751 1.27586 6.50506V21.6136C1.27586 22.2012 1.74368 22.6628 2.33908 22.6628H5.74138C6.08161 22.6628 6.37931 22.9566 6.37931 23.2923V27.0695L12.1632 22.7887C12.2908 22.7048 12.4184 22.6628 12.546 22.6628H23.6034C24.1989 22.6628 24.6667 22.2012 24.6667 21.6136V6.50506C24.6667 5.91751 24.1989 5.45586 23.6034 5.45586H2.33908ZM13.3966 1.25904C12.8011 1.25904 12.3333 1.72069 12.3333 2.30825V4.19682H23.6034C24.8793 4.19682 25.9425 5.24602 25.9425 6.50506V19.4313L30.6207 22.8727V19.0955C30.6207 18.7598 30.9184 18.466 31.2586 18.466H34.6609C35.2563 18.466 35.7241 18.0043 35.7241 17.4168V2.30825C35.7241 1.72069 35.2563 1.25904 34.6609 1.25904H13.3966ZM18.9253 15.1085C18.3299 15.1085 17.8621 14.6469 17.8621 14.0593C17.8621 13.4718 18.3299 13.0101 18.9253 13.0101C19.5207 13.0101 19.9885 13.4718 19.9885 14.0593C19.9885 14.6469 19.5207 15.1085 18.9253 15.1085ZM12.9713 15.1085C12.3759 15.1085 11.908 14.6469 11.908 14.0593C11.908 13.4718 12.3759 13.0101 12.9713 13.0101C13.5667 13.0101 14.0345 13.4718 14.0345 14.0593C14.0345 14.6469 13.5667 15.1085 12.9713 15.1085ZM7.01724 15.1085C6.42184 15.1085 5.95402 14.6469 5.95402 14.0593C5.95402 13.4718 6.42184 13.0101 7.01724 13.0101C7.61264 13.0101 8.08046 13.4718 8.08046 14.0593C8.08046 14.6469 7.61264 15.1085 7.01724 15.1085Z" fill="#4B5BEA"/>
</svg>
