<svg width="50" height="32" viewBox="0 0 50 32" fill="none" xmlns="http://www.w3.org/2000/svg">
<path d="M25 32C11.5113 32 0.659105 17.3308 0.22992 16.7118C-0.0766401 16.2785 -0.0766401 15.7215 0.22992 15.2882C0.659105 14.6692 11.5113 0 25 0C38.4887 0 49.3409 14.6692 49.7701 15.2882C50.0766 15.7215 50.0766 16.2785 49.7701 16.7118C49.3409 17.3308 38.4887 32 25 32ZM25 2.41393C15.0061 2.41393 6.29982 11.6364 3.05028 15.5977L2.74372 15.9691L3.05028 16.3404C6.29982 20.3017 14.9448 29.5242 25 29.5242C35.0552 29.5242 43.7002 20.3017 46.9497 16.3404L47.2563 15.9691L46.9497 15.5977C43.7002 11.6364 35.0552 2.41393 25 2.41393Z" fill="#FF9900"/>
<path d="M24.5 26C18.7219 26 14 21.2781 14 15.5C14 9.72189 18.7219 5 24.5 5C30.2781 5 35 9.72189 35 15.5C35 21.2781 30.2781 26 24.5 26ZM24.2515 7.48521C19.9024 7.48521 16.3609 10.9024 16.2367 15.2515C16.1124 19.6627 19.5917 23.3905 24.003 23.5769C24.0651 23.5769 24.1893 23.5769 24.2515 23.5769C28.6006 23.5769 32.142 20.1598 32.2663 15.8107C32.2663 15.7485 32.2663 15.6243 32.2663 15.5621C32.3284 11.213 28.8491 7.60947 24.5 7.54734C24.4379 7.48521 24.3757 7.48521 24.2515 7.48521Z" fill="#FF9900"/>
</svg>
