<svg width="58" height="52" viewBox="0 0 58 52" fill="none" xmlns="http://www.w3.org/2000/svg">
<path d="M7.95081 49C7.88742 49 7.82404 49 7.69726 48.9364C7.38032 48.8728 7.12677 48.6184 7.06339 48.3005C7.06339 48.2369 7.06339 48.1733 7 48.1097V48.0461V9.8903C7 9.76312 7 9.76312 7.06339 9.63593C7.19016 9.31797 7.44371 9.06359 7.76065 9C7.82404 9 7.88742 9 7.95081 9H8.07759H8.14097H8.20436C8.26775 9 8.33114 9.06359 8.39452 9.06359C8.58468 9.19078 8.77485 9.38156 8.83823 9.57234C8.83823 9.63593 8.90162 9.69952 8.90162 9.76312V9.82671V47.0286H46.11H46.2368C46.3002 47.0286 46.3002 47.0286 46.3636 47.0286C46.5537 47.0922 46.6805 47.2194 46.8073 47.3466C46.9974 47.601 47.0608 47.9825 46.934 48.2369C46.8707 48.3005 46.8707 48.4277 46.8073 48.4913C46.7439 48.5549 46.6805 48.6184 46.6171 48.682C46.4903 48.7456 46.3636 48.8092 46.2368 48.8092H46.0466H7.95081V49Z" fill="white"/>
<path d="M10.8998 37C10.8355 37 10.707 37 10.6427 36.9331C10.3214 36.7994 10.0643 36.5319 10 36.1976C10 36.0638 10 35.9301 10 35.7964C10 35.6626 10.0643 35.5289 10.1928 35.462L10.2571 35.3951L16.6843 28.7082L23.1115 21.9544L23.1758 21.8875C23.2401 21.8207 23.3043 21.8207 23.3686 21.7538C23.4972 21.6869 23.6257 21.6869 23.7543 21.6869C23.8828 21.6869 24.0113 21.6869 24.1399 21.7538C24.2042 21.8207 24.2684 21.8207 24.3327 21.8875L24.4612 22.0213L30.1815 28.0395L35.966 21.9544L42.4575 15.2675C42.5217 15.2675 42.5217 15.2006 42.5217 15.2006C42.6503 15.1337 42.7788 15.0669 42.9074 15C42.9716 15 43.0359 15 43.1002 15H43.2287H43.293C43.3573 15 43.4215 15.0669 43.4858 15.0669C43.7429 15.2006 43.8715 15.4012 43.9357 15.6687C43.9357 15.7356 43.9357 15.8024 44 15.8693V15.9362V22.5562V22.6231C44 22.7568 43.9357 22.8906 43.8715 23.0243C43.6786 23.2918 43.4215 23.4924 43.1002 23.4924H43.0359C42.9716 23.4924 42.9074 23.4924 42.7788 23.4255C42.6503 23.3587 42.5217 23.2918 42.4575 23.2249C42.3289 23.0912 42.2646 22.9574 42.2004 22.7568C42.2004 22.69 42.2004 22.6231 42.2004 22.5562V22.4894V18.2097L41.1077 19.3465C37.1229 23.4255 36.2873 24.2948 32.3667 28.4407L30.8885 30.0456L30.8242 30.1125C30.7599 30.1793 30.6957 30.1793 30.6314 30.2462C30.5028 30.3131 30.3743 30.3131 30.2457 30.3131C30.1172 30.3131 29.9887 30.3131 29.8601 30.2462C29.7958 30.1793 29.7316 30.1793 29.6673 30.1125L29.5388 29.9787L23.8185 23.9605L18.034 30.0456L11.6068 36.7325C11.5425 36.7994 11.4783 36.7994 11.414 36.8663C11.2854 36.9331 11.0926 37 10.8998 37Z" fill="white"/>
<path d="M41.0178 17C40.4013 17 39.7232 17 39.1067 17H38.7984C38.182 17 37.5038 17 36.8874 17C36.7641 17 36.6408 17 36.5175 16.9333C36.3942 16.8667 36.3325 16.8 36.2709 16.7333C36.2092 16.6667 36.1476 16.6 36.0859 16.4667C35.9626 16.1333 35.9626 15.8 36.1476 15.4667C36.2092 15.4 36.2709 15.3333 36.3325 15.2667C36.4558 15.2 36.5791 15.1333 36.7024 15.0667C36.7641 15.0667 36.8257 15.0667 36.8874 15.0667C37.9354 15 38.9834 15 40.0314 15C41.0794 15 42.1274 15 43.1755 15.0667C43.3604 15.0667 43.4837 15.1333 43.5453 15.2C43.6686 15.2667 43.7303 15.3333 43.7919 15.4C43.9769 15.6667 44.0385 16 43.9769 16.3333C43.9769 16.4 43.9152 16.5333 43.8536 16.6C43.7919 16.6667 43.7303 16.7333 43.6686 16.8C43.5453 16.8667 43.4221 16.9333 43.2988 17C43.2371 17 43.1755 17 43.1138 17C42.4357 17 41.6959 17 41.0178 17Z" fill="white"/>
</svg>
