<svg width="37" height="36" viewBox="0 0 37 36" fill="none" xmlns="http://www.w3.org/2000/svg">
<path d="M19.3511 32.496C16.0951 32.496 13.0981 30.9468 11.3221 28.3648L5.62406 20.0287C5.29106 19.5123 5.21706 18.9222 5.47606 18.332C5.73506 17.7419 6.32706 17.2992 6.95606 17.2255C7.10406 17.2255 7.25206 17.1886 7.43706 17.1886C8.76906 17.1886 10.0271 17.8525 10.9151 19.0328L11.9141 20.3607V8.74186C11.9141 7.52464 12.9501 6.49186 14.2451 6.49186C14.4671 6.49186 14.6891 6.52874 14.9111 6.60251L15.6141 6.82382V5.90169C15.6141 4.57382 16.7611 3.50415 18.1301 3.50415C19.4991 3.50415 20.7201 4.57382 20.7201 5.90169V6.93448L21.4601 6.71317C21.7191 6.6394 21.9781 6.60251 22.2371 6.60251C23.6061 6.60251 24.6791 7.6353 24.6791 8.92628V10.2173L25.4191 9.95907C25.7151 9.84841 26.0111 9.81153 26.3071 9.81153C27.7131 9.81153 28.8601 10.9181 28.8601 12.246V23.496C28.8601 28.4755 24.5681 32.496 19.3511 32.496ZM7.43706 18.1476C7.32606 18.1476 7.17806 18.1476 7.06706 18.1845C6.73406 18.2214 6.43806 18.4427 6.32706 18.7009C6.21606 18.9591 6.25306 19.2542 6.40106 19.4755L12.0991 27.8115C13.6901 30.1353 16.3911 31.5369 19.3141 31.5369C24.0501 31.5369 27.8611 27.9222 27.8611 23.496V12.2828C27.8611 11.4714 27.1211 10.8074 26.2331 10.8074C25.3451 10.8074 24.6051 11.4714 24.6051 12.2828V19.0328C24.6051 19.291 24.3831 19.5124 24.1241 19.5124C23.8651 19.5124 23.6431 19.291 23.6431 19.0328V8.92628C23.6431 8.15169 22.9771 7.52464 22.1261 7.52464C21.2751 7.52464 20.7201 8.15169 20.7201 8.92628V18.8853C20.7201 19.1435 20.4981 19.3648 20.2391 19.3648C19.9801 19.3648 19.7581 19.1435 19.7581 18.8853V5.90169C19.7581 5.09022 19.0551 4.46317 18.1671 4.46317C17.2791 4.46317 16.5761 5.1271 16.5761 5.90169V18.7378C16.5761 18.996 16.3541 19.2173 16.0951 19.2173C15.8361 19.2173 15.6141 18.996 15.6141 18.7378V8.74186C15.6141 8.04104 14.9851 7.45087 14.2081 7.45087C13.4311 7.45087 12.8021 8.04104 12.8021 8.74186V21.7623C12.8021 22.0943 12.5061 22.205 12.2841 22.205C12.1361 22.205 12.0251 22.1312 11.9511 22.0205L9.87906 19.3279C9.36106 18.5902 8.43606 18.1476 7.43706 18.1476Z" fill="#4B5BEA"/>
</svg>
