<svg width="34" height="30" viewBox="0 0 34 30" fill="none" xmlns="http://www.w3.org/2000/svg">
<path d="M33.276 27.0396L33.2757 27.0391L18.4158 1.31462L33.276 27.0396ZM33.276 27.0396C33.9054 28.1267 33.1349 29.5 31.8418 29.5H2.12139C0.873133 29.5 0.0914112 28.1332 0.724579 27.0396L0.724822 27.0391M33.276 27.0396L0.724822 27.0391M0.724822 27.0391L15.5848 1.31462M0.724822 27.0391L15.5848 1.31462M15.5848 1.31462C16.2135 0.228602 17.7865 0.228462 18.4155 1.31419L15.5848 1.31462ZM16.4123 8.45706L16.4123 8.45703L16.4073 8.45832C15.3034 8.7463 14.5774 9.82431 14.5774 10.921V10.9366L14.5784 10.9522C14.597 11.2503 14.6157 11.5579 14.6343 11.866C14.6529 12.1728 14.6716 12.4801 14.6902 12.7784C14.7463 13.9181 14.8116 15.0574 14.8769 16.1944L14.8769 16.1954C14.9423 17.3345 15.0075 18.4712 15.0634 19.6076L15.0634 19.608C15.1142 20.6237 15.9712 21.4272 16.9816 21.4272C18.0431 21.4272 18.8465 20.6109 18.8995 19.5772C18.9181 19.333 18.9277 19.0987 18.9366 18.8787L18.9373 18.8614C18.9467 18.6313 18.9557 18.4176 18.9734 18.2058L18.974 18.1979L18.9744 18.1899C19.0116 17.4653 19.0581 16.7309 19.1048 15.993L19.1049 15.9912C19.1515 15.2549 19.1983 14.5151 19.2358 13.7842L19.2358 13.7842L19.2361 13.7778C19.2733 12.8096 19.3102 11.8894 19.3834 10.9712C19.4284 10.5943 19.3822 10.1609 19.1837 9.76395C18.6751 8.74684 17.5505 8.17251 16.4123 8.45706ZM19.4228 24.194L19.4231 24.1847V24.1755C19.4231 22.836 18.3969 21.734 17.0563 21.734C15.7347 21.734 14.6521 22.8166 14.6521 24.1381C14.6521 25.4467 15.6845 26.5423 17.0189 26.5423C18.3068 26.5423 19.3759 25.4599 19.4228 24.194Z" stroke="#4B5BEA"/>
</svg>
