<svg width="43" height="33" viewBox="0 0 43 33" fill="none" xmlns="http://www.w3.org/2000/svg">
<path fill-rule="evenodd" clip-rule="evenodd" d="M2.35714 0H29.7C31.0018 0 32.0571 1.05533 32.0571 2.35714C32.0571 3.65896 31.0018 4.71429 29.7 4.71429H2.35714C1.05533 4.71429 0 3.65896 0 2.35714C0 1.05533 1.05533 0 2.35714 0ZM2.35714 28.2857H24.0429C25.3447 28.2857 26.4 29.341 26.4 30.6429C26.4 31.9447 25.3447 33 24.0429 33H2.35714C1.05533 33 0 31.9447 0 30.6429C0 29.341 1.05533 28.2857 2.35714 28.2857ZM2.35714 14.1429H40.0714C41.3732 14.1429 42.4286 15.1982 42.4286 16.5C42.4286 17.8018 41.3732 18.8571 40.0714 18.8571H2.35714C1.05533 18.8571 0 17.8018 0 16.5C0 15.1982 1.05533 14.1429 2.35714 14.1429Z" fill="#4B5BEA"/>
</svg>
