<svg width="29" height="33" viewBox="0 0 29 33" fill="none" xmlns="http://www.w3.org/2000/svg">
<path d="M14.5439 33C11.9076 33 9.75455 30.8724 9.75455 28.2671V27.6158H3.07576C1.36212 27.6158 0 26.2697 0 24.5763C0 23.0132 1.2303 21.6671 2.81212 21.5368L3.42727 21.4934V14.3724C3.42727 9.94342 6.06364 5.99211 10.1939 4.25526L10.5894 4.08158V3.69079C10.6773 1.60658 12.3909 0 14.5 0C16.6091 0 18.3227 1.60658 18.4106 3.69079V4.08158L18.8061 4.25526C22.9364 5.99211 25.5727 9.94342 25.5727 14.3724V21.4934L26.1879 21.5368C27.7697 21.6671 29 22.9697 29 24.5763C29 26.2697 27.6379 27.6158 25.9242 27.6158H19.3333V28.2671C19.3333 30.8724 17.1803 33 14.5439 33Z" fill="white"/>
</svg>
