<svg width="38" height="37" viewBox="0 0 38 37" fill="none" xmlns="http://www.w3.org/2000/svg">
<path d="M37.4517 14.0756C37.1143 13.7464 36.6926 13.5818 36.2708 13.5818H33.2342C32.7281 13.5818 32.5172 13.1702 32.475 13.0879C32.4329 12.9644 32.3063 12.5528 32.6437 12.1824L34.7947 10.0834C35.1321 9.75417 35.3008 9.3426 35.3008 8.93103C35.3008 8.47831 35.1321 8.06674 34.7947 7.77864L30.0289 3.08676C29.3541 2.42825 28.2997 2.42825 27.6249 3.08676L25.4739 5.18576C25.0943 5.55617 24.6726 5.39155 24.5461 5.35039C24.4617 5.30923 24.04 5.10345 24.04 4.60957V1.64627C24.04 1.19355 23.8713 0.78198 23.5339 0.493882C23.2386 0.164627 22.8169 0 22.3951 0H15.6471C15.1831 0 14.7614 0.164627 14.424 0.452725C14.1287 0.78198 13.96 1.19355 13.9179 1.64627V4.60957C13.9179 5.10345 13.4961 5.30923 13.4118 5.39155C13.3274 5.47386 12.8635 5.55617 12.4839 5.22692L10.333 3.12792C9.99556 2.79867 9.57381 2.63404 9.15205 2.63404C8.68812 2.63404 8.26637 2.79867 7.97114 3.12792L3.16315 7.73748C2.48835 8.39599 2.48835 9.42492 3.16315 10.0834L5.3141 12.1824C5.69367 12.5528 5.52497 12.9644 5.4828 13.0879C5.44062 13.2113 5.22975 13.5818 4.68147 13.5818H1.64484C1.18091 13.5818 0.759156 13.7464 0.463929 14.0756C0.168701 14.3226 0 14.7753 0 15.1869V21.772C0 22.6774 0.759156 23.4182 1.68701 23.4182H4.72364C5.22975 23.4182 5.44062 23.8298 5.52497 23.9121C5.60932 23.9944 5.69367 24.4472 5.35627 24.8176L3.20533 26.9166C2.53052 27.5751 2.53052 28.604 3.20533 29.2625L7.97114 33.9132C8.64595 34.5717 9.70033 34.5717 10.3751 33.9132L12.5261 31.8142C12.9057 31.4438 13.3274 31.5673 13.4539 31.6496C13.5805 31.7319 13.96 31.8965 13.96 32.3904V35.3537C13.96 36.2592 14.7192 37 15.6471 37H22.3951C22.859 37 23.2808 36.8354 23.576 36.5061C23.9134 36.1769 24.0821 35.7653 24.0821 35.3537V32.3904C24.0821 31.8965 24.5039 31.6908 24.5882 31.6496C24.7148 31.6085 25.1365 31.485 25.5161 31.8142L27.667 33.9132C28.3418 34.5717 29.3962 34.5717 30.071 33.9132L34.8368 29.2625C35.5117 28.604 35.5117 27.5751 34.8368 26.9166L32.6859 24.8176C32.3063 24.4472 32.4329 24.0356 32.5172 23.9121C32.6016 23.7887 32.7703 23.4182 33.2764 23.4182H36.313C37.2408 23.4182 38 22.6774 38 21.772V15.1869C37.9578 14.8165 37.7891 14.4049 37.4517 14.0756ZM36.2708 15.2692V21.8543H33.2342C32.1798 21.8543 31.2941 22.4305 30.9145 23.3771C30.535 24.3237 30.7458 25.3526 31.4628 26.0523L33.6138 28.1513L28.8058 32.802L26.6548 30.703C25.8957 29.9622 24.8835 29.7976 23.9134 30.168C22.9434 30.5384 22.3529 31.4027 22.3529 32.4316V35.3949H15.6049V32.4316C15.6049 31.4027 15.0144 30.5384 14.0444 30.1268C13.707 30.0033 13.3696 29.921 13.0744 29.921C12.4417 29.921 11.8091 30.168 11.303 30.6618L9.15205 32.7608L4.34406 28.1101L6.49501 26.0111C7.25416 25.2703 7.42286 24.2825 7.04329 23.3359C6.66371 22.3893 5.77802 21.8131 4.72364 21.8131H1.68701V15.228H4.72364C5.77802 15.228 6.66371 14.6518 7.04329 13.7052C7.46504 12.7586 7.25416 11.7297 6.49501 11.03L4.34406 8.93103L9.10988 4.28031L11.2608 6.37931C12.02 7.12013 13.0744 7.28476 14.0022 6.91435C14.9723 6.54394 15.5627 5.63849 15.5627 4.65072L15.6049 1.64627H22.3529V4.60957C22.3529 5.63849 22.9434 6.50278 23.9134 6.87319C24.8835 7.28476 25.9378 7.07898 26.6548 6.33815L28.8058 4.23915L33.5716 8.88988L31.4206 10.9889C30.6615 11.7297 30.4928 12.7586 30.8724 13.6641C31.2519 14.6107 32.1798 15.1869 33.192 15.1869L36.2708 15.2692ZM18.9789 11.9355C15.2675 11.9355 12.2309 14.8988 12.2309 18.5206C12.2309 22.1424 15.2675 25.1057 18.9789 25.1057C22.6903 25.1057 25.727 22.1424 25.727 18.5206C25.727 14.8988 22.6903 11.9355 18.9789 11.9355ZM18.9789 23.4594C16.1953 23.4594 13.9179 21.2369 13.9179 18.5206C13.9179 15.8042 16.1953 13.5818 18.9789 13.5818C21.7625 13.5818 24.04 15.8042 24.04 18.5206C24.04 21.2369 21.7625 23.4594 18.9789 23.4594Z" fill="#FF9900"/>
</svg>
