<svg width="31" height="24" viewBox="0 0 31 24" fill="none" xmlns="http://www.w3.org/2000/svg">
<path d="M4.81034 24C4.66782 24 4.52529 23.9305 4.41839 23.8611C4.31149 23.7569 4.27586 23.6179 4.27586 23.479V19.7974H1.95977C0.890805 19.7974 0 18.9291 0 17.8871V5.3835C0 4.34153 0.890805 3.47323 1.95977 3.47323H9.26437V1.91028C9.26437 0.868307 10.1552 0 11.2241 0H29.0402C30.1092 0 31 0.868307 31 1.91028V14.4139C31 15.4559 30.1092 16.3242 29.0402 16.3242H26.7241V19.9711C26.7241 20.0753 26.6885 20.2142 26.6172 20.2836C26.5103 20.4226 26.3678 20.492 26.1897 20.492C26.0828 20.492 25.9759 20.4573 25.869 20.3878L21.8782 17.4703L21.7 18.2692C21.5218 19.1375 20.7023 19.7974 19.7759 19.7974H10.6897L5.13103 23.8958C5.02414 23.9305 4.91724 24 4.81034 24ZM1.95977 4.5152C1.46092 4.5152 1.06897 4.89725 1.06897 5.3835V17.8871C1.06897 18.3734 1.46092 18.7554 1.95977 18.7554H4.81034C5.0954 18.7554 5.34483 18.9986 5.34483 19.2764V22.4023L10.1908 18.8596C10.2977 18.7902 10.4046 18.7554 10.5115 18.7554H19.7759C20.2747 18.7554 20.6667 18.3734 20.6667 17.8871V5.3835C20.6667 4.89725 20.2747 4.5152 19.7759 4.5152H1.95977ZM11.2241 1.04197C10.7253 1.04197 10.3333 1.42402 10.3333 1.91028V3.47323H19.7759C20.8448 3.47323 21.7356 4.34153 21.7356 5.3835V16.081L25.6552 18.9291V15.8032C25.6552 15.5253 25.9046 15.2822 26.1897 15.2822H29.0402C29.5391 15.2822 29.931 14.9001 29.931 14.4139V1.91028C29.931 1.42402 29.5391 1.04197 29.0402 1.04197H11.2241ZM15.8563 12.5036C15.3575 12.5036 14.9655 12.1216 14.9655 11.6353C14.9655 11.1491 15.3575 10.767 15.8563 10.767C16.3552 10.767 16.7471 11.1491 16.7471 11.6353C16.7471 12.1216 16.3552 12.5036 15.8563 12.5036ZM10.8678 12.5036C10.369 12.5036 9.97701 12.1216 9.97701 11.6353C9.97701 11.1491 10.369 10.767 10.8678 10.767C11.3667 10.767 11.7586 11.1491 11.7586 11.6353C11.7586 12.1216 11.3667 12.5036 10.8678 12.5036ZM5.87931 12.5036C5.38046 12.5036 4.98851 12.1216 4.98851 11.6353C4.98851 11.1491 5.38046 10.767 5.87931 10.767C6.37816 10.767 6.77011 11.1491 6.77011 11.6353C6.77011 12.1216 6.37816 12.5036 5.87931 12.5036Z" fill="#009BF2"/>
</svg>
