<svg width="31" height="38" viewBox="0 0 31 38" fill="none" xmlns="http://www.w3.org/2000/svg">
<path d="M23.1665 38C20.6812 38 18.3734 36.8335 16.9089 34.8595L16.7757 34.68H5.59191C2.52967 34.68 0 32.1228 0 29.0272V5.65289C0 2.55726 2.52967 0 5.59191 0H16.9532C18.0184 0 19.0391 0.448642 19.7492 1.16647L26.5394 7.98583C27.2938 8.74852 27.6933 9.73554 27.6933 10.8123V23.5986L27.8708 23.7332C28.4477 24.1818 28.9803 24.7202 29.4241 25.3034C30.6667 27.0083 31.1993 29.072 30.933 31.1806C30.6667 33.2893 29.5572 35.1287 27.8708 36.3849C26.495 37.4616 24.8529 38 23.1665 38ZM23.1221 23.4191C19.4829 23.4191 16.5538 26.3802 16.5538 30.059C16.5538 33.7379 19.4829 36.6989 23.1221 36.6989C26.7613 36.6989 29.6904 33.693 29.6904 30.059C29.6904 26.3802 26.7613 23.4191 23.1221 23.4191ZM5.59191 1.30106C3.23976 1.30106 1.28703 3.27509 1.28703 5.65289V28.9823C1.28703 31.3601 3.23976 33.3341 5.59191 33.3341H15.9769L15.755 32.706C15.4443 31.8536 15.2668 30.9115 15.2668 30.0142C15.2668 25.6623 18.8172 22.0732 23.1221 22.0732C24.0541 22.0732 24.9417 22.2527 25.7849 22.5667L26.4062 22.791V10.8571C26.4062 10.1393 26.1399 9.46635 25.6518 8.97285L18.8616 2.10862C18.3734 1.61511 17.7077 1.30106 16.9976 1.30106H5.59191ZM22.1457 32.4817C21.9682 32.4817 21.7907 32.392 21.7019 32.3022L20.1042 30.6871C19.838 30.4179 19.8823 30.0142 20.1042 29.745C20.2374 29.6104 20.3705 29.5655 20.548 29.5655C20.7256 29.5655 20.9031 29.6553 20.9918 29.745L22.1013 30.9115L25.208 27.8607C25.3411 27.7261 25.4742 27.6812 25.6518 27.6812C25.8293 27.6812 26.0068 27.771 26.0956 27.8607L26.1399 27.9055C26.2287 28.0401 26.3175 28.1747 26.2731 28.3542C26.2731 28.5336 26.1843 28.7131 26.0956 28.8028L22.5452 32.3022C22.4564 32.392 22.3232 32.4817 22.1457 32.4817ZM8.16596 19.3365C7.81092 19.3365 7.50026 19.0224 7.50026 18.6635C7.50026 18.3046 7.81092 17.9906 8.16596 17.9906H18.2403C18.4178 17.9906 18.5953 18.0803 18.6841 18.17C18.8172 18.3046 18.8616 18.4392 18.8616 18.6187C18.8616 18.9776 18.5509 19.2916 18.1959 19.2916H8.16596V19.3365ZM8.16596 12.3825C7.81092 12.3825 7.50026 12.0685 7.50026 11.7096C7.50026 11.3507 7.81092 11.0366 8.16596 11.0366H14.6455C15.0005 11.0366 15.3112 11.3507 15.3112 11.7096C15.3112 12.0685 15.0005 12.3825 14.6455 12.3825H8.16596Z" fill="#4B5BEA"/>
</svg>
