<svg width="34" height="34" viewBox="0 0 34 34" fill="none" xmlns="http://www.w3.org/2000/svg">
<path d="M28.2633 0.228426C27.9601 -0.0761421 27.5052 -0.0761421 27.2525 0.228426L10.1184 17.3858C10.0173 17.4873 9.91618 17.6396 9.91618 17.7919L9.00641 24.1878C8.95587 24.5939 9.20858 24.9492 9.61292 25C9.66347 25 9.76456 25 9.8151 25L16.2846 24.2386C16.4363 24.2386 16.5879 24.1371 16.689 24.0355L33.7726 6.87817C34.0758 6.5736 34.0758 6.11675 33.7726 5.86294L28.2633 0.228426ZM15.8297 22.8173L10.5732 23.4772L11.3314 18.2487L22.3498 7.18274L26.8987 11.7513L15.8297 22.8173ZM27.859 10.736L23.3101 6.16751L27.7074 1.75127L32.2563 6.3198L27.859 10.736Z" fill="#4B5BEA"/>
<path d="M29.573 31.5083C29.573 32.1063 29.1302 32.6047 28.5397 32.6047C28.5397 32.6047 28.5397 32.6047 28.4905 32.6047H2.50952C1.91905 32.6047 1.42698 32.1561 1.42698 31.5581V6.54153C1.42698 5.94352 1.91905 5.44518 2.50952 5.44518H16.4349V4H2.50952C1.13175 4 0 5.14618 0 6.54153V31.5083C0 32.9037 1.13175 34 2.46032 34H28.4905C29.8683 34 30.9508 32.9037 31 31.5083C31 31.5083 31 31.5083 31 31.4585V16.4585H29.573V31.5083Z" fill="#4B5BEA"/>
</svg>
