<svg width="55" height="54" viewBox="0 0 55 54" fill="none" xmlns="http://www.w3.org/2000/svg">
<path d="M28.0502 32.9201C27.8852 32.9201 27.5552 32.7541 27.3902 32.6435C27.2252 32.4775 27.1152 32.1455 27.1152 31.9242C27.1152 30.5964 27.5002 29.3238 28.1602 28.3279C28.6002 27.7193 28.9852 27.2767 29.3702 26.9447C29.7002 26.6681 30.0302 26.4468 30.3052 26.2255C30.4702 26.1148 30.6352 26.0041 30.8002 25.8935L30.8552 25.8382L30.9652 25.7828C31.2402 25.5615 31.4602 25.3402 31.6802 25.0636L31.7352 25.0082L31.7902 24.9529C31.9552 24.6763 32.1752 24.3996 32.2852 24.0677L32.3402 24.0123L32.3952 23.9017C32.5052 23.5697 32.6152 23.2378 32.6702 22.9058V22.8505V22.7398C32.6702 22.6291 32.6702 22.5738 32.6702 22.4632C32.6702 22.1865 32.6702 21.9652 32.6702 21.6886V21.6332V21.5226C32.6152 21.1906 32.5052 20.8587 32.3952 20.5267V20.4714L32.3402 20.3607C32.1752 20.0287 32.0102 19.7521 31.8452 19.4755L31.7902 19.4201L31.6802 19.3648C31.5702 19.2541 31.4602 19.0882 31.3502 18.9775L31.1302 18.7562L30.8552 18.5349H30.8002C30.5252 18.3689 30.2502 18.2029 29.9202 18.0369L29.8652 17.9816L29.7552 17.9263C29.4252 17.8156 29.0952 17.705 28.7652 17.6496H28.7102H28.6002C28.4352 17.6496 28.2702 17.6496 28.0502 17.6496C27.8302 17.6496 27.7202 17.6496 27.5002 17.6496H27.4452H27.3352C27.0052 17.705 26.6752 17.8156 26.3452 17.9263H26.2902L26.1802 17.9816C25.8502 18.1476 25.5752 18.3136 25.3002 18.4796L25.2452 18.5349L25.1902 18.5902C25.0802 18.7009 24.9152 18.8115 24.8052 18.9222L24.5852 19.1435L24.3652 19.4201L24.3102 19.4755C24.1452 19.7521 23.9802 20.0287 23.8152 20.3607L23.7602 20.416L23.7052 20.5267C23.5952 20.8587 23.4852 21.1906 23.4302 21.5226V21.5779V21.6886C23.4302 21.8546 23.4302 22.0205 23.4302 22.2419C23.4302 22.7951 22.9902 23.2378 22.3852 23.2378C22.1652 23.2378 21.8902 23.1271 21.7252 22.9611C21.5602 22.7951 21.4502 22.4632 21.4502 22.2419C21.4502 21.1906 21.7252 20.1394 22.2202 19.1435C22.6052 18.3136 23.3202 17.5943 24.2552 16.8197C24.8602 16.3771 25.6302 15.9898 26.4002 15.8238C26.8952 15.7132 27.4452 15.6578 27.9952 15.6578C28.4352 15.6578 28.9302 15.7132 29.4252 15.7685C30.1402 15.8791 30.9102 16.2111 31.5702 16.6537C32.3952 17.207 33.0552 17.871 33.6052 18.7009C33.8802 19.0882 34.0452 19.5308 34.2102 20.0287C34.3202 20.3054 34.4302 20.6373 34.4852 20.914C34.7052 22.0759 34.6502 23.1271 34.3752 24.0677C34.1002 25.0082 33.6052 25.9488 32.8902 26.7787C32.5602 27.166 32.1202 27.498 31.7352 27.7746C31.6252 27.8853 31.4602 27.9406 31.3502 28.0513V27.996C31.2402 28.0513 31.1302 28.1619 30.9652 28.2173L30.9102 28.2726C30.9102 28.2726 30.8552 28.3279 30.8002 28.3832L30.6902 28.4386L30.4702 28.6046L30.5252 28.6599C30.4152 28.7705 30.2502 28.9365 30.1402 29.0472L30.0852 29.1025L30.0302 29.1578C29.8652 29.4345 29.6452 29.7111 29.5352 30.0431L29.4802 30.0984L29.4252 30.2091C29.3152 30.541 29.2052 30.873 29.1502 31.205V31.2603C29.1502 31.2603 29.1502 31.371 29.1502 31.4263L29.0952 31.5923L29.0402 31.8689H29.0952C29.1502 32.4775 28.6552 32.9201 28.0502 32.9201Z" fill="white"/>
<path d="M28.1048 39.7807C27.7748 39.7807 27.4448 39.6148 27.1698 39.3381C26.9498 39.1721 26.8398 38.7848 26.8398 38.3975C26.8398 38.1209 27.0048 37.7336 27.2248 37.5123C27.4448 37.291 27.8298 37.125 28.1598 37.125C28.4898 37.125 28.8198 37.2357 29.0948 37.5123C29.3148 37.6783 29.4248 38.0656 29.4248 38.4529C29.4248 38.7295 29.2598 39.1168 29.0398 39.3381C28.8198 39.6701 28.4348 39.7807 28.1048 39.7807Z" fill="white"/>
<path d="M28.1598 46.8628C26.5098 46.8628 24.9148 46.6415 23.3198 46.2542C19.4148 45.3136 15.7848 43.0451 13.1998 40.0021C11.8248 38.3423 10.7248 36.6271 9.89984 34.6353C9.12984 32.7542 8.63484 30.8177 8.41484 28.6599C8.02984 24.7869 8.90984 20.6927 10.8348 17.207C11.8248 15.4365 13.0898 13.7767 14.5748 12.4488C16.1148 11.0103 17.8198 9.84842 19.5798 9.01851C20.6798 8.52056 21.6698 8.13326 22.6048 7.85662C23.4848 7.57998 24.5298 7.414 25.7948 7.24801C26.5098 7.13736 27.2798 7.08203 28.0498 7.08203C29.2048 7.08203 30.3598 7.19269 31.6248 7.414C35.4748 8.07793 39.2148 10.0144 42.1298 12.9468C42.8448 13.666 43.5048 14.4406 44.2198 15.4365C46.5298 18.5902 47.7948 22.5185 47.9048 26.6128C48.0148 30.5964 46.8598 34.6353 44.7148 37.8997C43.5048 39.7255 42.1298 41.2747 40.5898 42.4919C39.5448 43.3218 38.7198 43.8751 37.8948 44.373C37.0698 44.871 36.0798 45.3136 34.9798 45.7009C32.7798 46.4755 30.5248 46.8628 28.1598 46.8628ZM26.3448 44.7603C26.8948 44.8156 27.4998 44.8156 28.1048 44.8156C28.7648 44.8156 29.4798 44.7603 30.1398 44.705L30.4698 44.6497C32.0098 44.4283 33.4948 43.9857 34.9248 43.4324L35.5298 43.2111C36.7398 42.6578 37.8948 41.9386 38.9398 41.164C39.9848 40.2788 40.9748 39.3382 41.8548 38.3423L42.0198 38.121L42.2398 37.789C43.1198 36.5718 43.8898 35.2992 44.4398 33.916C45.0448 32.4775 45.4298 30.9283 45.6498 29.4345L45.7048 29.0472C45.8148 27.664 45.8698 26.2808 45.7048 24.8976L45.6498 24.5656C45.4298 23.0165 44.9898 21.5226 44.4398 20.0841L44.3848 20.0288L44.4398 19.9181L44.2748 19.5308C43.7248 18.3136 43.0098 17.1517 42.2398 16.1005L42.0748 15.8792C41.6348 15.3259 41.1948 14.8279 40.6998 14.3853C40.3148 13.998 39.8748 13.5554 39.4348 13.2234L39.1598 13.0021L38.9398 12.8361C37.7298 11.9509 36.4098 11.1763 35.0348 10.5677C33.6048 9.95908 32.0648 9.57178 30.5798 9.35047H30.4698L30.2498 9.23982L29.8648 9.18449C29.2598 9.12916 28.7098 9.12916 28.1048 9.12916C27.4998 9.12916 26.9498 9.12916 26.3448 9.18449H26.0698L25.6848 9.23982C24.3098 9.46113 22.9898 9.7931 21.7248 10.2357L21.4498 10.3464L21.1748 10.5124L20.6798 10.7337C19.4698 11.2869 18.3148 12.0062 17.2698 12.7808C16.2248 13.666 15.2348 14.6066 14.3548 15.6025L14.1898 15.8238L13.9698 16.1005C13.0898 17.3177 12.3198 18.6456 11.7148 19.9734C11.1098 21.4119 10.7248 22.9611 10.5048 24.455C10.5048 24.5103 10.5048 24.5656 10.5048 24.621V24.7869L10.4498 25.1742C10.3398 26.3361 10.3398 27.5533 10.4498 28.7152V28.9919L10.5048 29.3792C10.7248 30.707 11.0548 32.0349 11.4948 33.3074L11.6048 33.5841L11.7148 33.916L11.9348 34.414C12.4848 35.6312 13.1998 36.7931 13.9698 37.8443L14.0248 37.955L14.1348 38.0656L14.2998 38.2869C15.0698 39.1722 15.8948 40.0021 16.7748 40.7767L16.9948 40.9427L17.2698 41.164C18.4798 42.0492 19.7998 42.8238 21.1748 43.4324C22.6048 44.041 24.1448 44.4283 25.6298 44.6497C25.6298 44.6497 25.7398 44.6497 25.7948 44.6497L25.9598 44.705L26.3448 44.7603Z" fill="white"/>
<path d="M27.0432 48C25.2926 48 23.6003 47.7663 21.9081 47.3574C17.7649 46.3644 13.9135 43.9694 11.1709 40.7566C9.71204 39.0042 8.54495 37.1933 7.66964 35.0904C6.85268 33.1043 6.3275 31.0598 6.09408 28.7816C5.6856 24.6926 6.61927 20.37 8.66166 16.6898C9.71204 14.8206 11.0542 13.0682 12.6297 11.6662C14.2637 10.1474 16.0726 8.92072 17.94 8.04451C19.1071 7.51878 20.1574 7.10987 21.1495 6.8178C22.0831 6.52573 23.1918 6.35049 24.534 6.17524C25.2926 6.05841 26.1096 6 26.9265 6C28.152 6 29.3774 6.11683 30.7195 6.35049C34.8043 7.05146 38.7724 9.09597 41.8652 12.1919C42.6238 12.9513 43.324 13.7691 44.0826 14.8206C46.5335 18.1502 47.8757 22.2976 47.9924 26.6203C48.1091 30.8261 46.8836 35.0904 44.6078 38.5369C43.324 40.4645 41.8652 42.1001 40.2313 43.3853C39.1225 44.2615 38.2472 44.8456 37.3719 45.3713C36.4966 45.8971 35.4462 46.3644 34.2791 46.7733C31.945 47.5911 29.5525 48 27.0432 48Z" fill="white"/>
<path d="M25.1308 45.9411C25.7205 46 26.3692 46 27.0179 46C27.7255 46 28.4921 45.9411 29.1998 45.8822L29.5536 45.8233C31.2048 45.5876 32.797 45.1163 34.3302 44.5271L34.9789 44.2915C36.2762 43.7023 37.5146 42.9364 38.635 42.1116C39.7554 41.169 40.8169 40.1674 41.7604 39.107L41.9373 38.8713L42.1732 38.5178C43.1167 37.2217 43.9423 35.8667 44.532 34.3938C45.1807 32.862 45.5935 31.2124 45.8294 29.6217L45.8883 29.2093C46.0063 27.7364 46.0653 26.2636 45.8883 24.7907L45.8294 24.4372C45.5935 22.7876 45.1217 21.1969 44.532 19.6651L44.4731 19.6062L44.532 19.4884L44.3551 19.076C43.7654 17.7798 42.9988 16.5426 42.1732 15.4233L41.9963 15.1876C41.5246 14.5984 41.0528 14.0682 40.5221 13.5969C40.1093 13.1845 39.6375 12.7132 39.1657 12.3597L38.8709 12.124L38.635 11.9473C37.3377 11.0047 35.9224 10.1798 34.4481 9.53178C32.9149 8.88372 31.2637 8.47132 29.6715 8.23566H29.5536L29.3177 8.11783L28.9049 8.05891C28.2563 8 27.6666 8 27.0179 8C26.3692 8 25.7795 8 25.1308 8.05891H24.836L24.4232 8.11783C22.9489 8.35349 21.5337 8.70698 20.1773 9.17829L19.8825 9.29612L19.5876 9.47287L19.0569 9.70853C17.7596 10.2977 16.5212 11.0636 15.4008 11.8884C14.2803 12.831 13.2189 13.8326 12.2753 14.893L12.0984 15.1287L11.8625 15.4233C10.919 16.7194 10.0934 18.1333 9.44477 19.5473C8.7961 21.0791 8.38331 22.7287 8.14743 24.3194C8.14743 24.3783 8.14743 24.4372 8.14743 24.4961V24.6729L8.08846 25.0853C7.97051 26.3225 7.97051 27.6186 8.08846 28.8558V29.1504L8.14743 29.5628C8.38331 30.9767 8.73713 32.3907 9.20889 33.7457L9.32683 34.0403L9.44477 34.3938L9.68065 34.924C10.2704 36.2202 11.037 37.4574 11.8625 38.5767L11.9215 38.6946L12.0395 38.8124L12.2164 39.0481C13.042 39.9907 13.9265 40.8744 14.87 41.6992L15.1059 41.876L15.4008 42.1116C16.6981 43.0543 18.1134 43.8791 19.5876 44.5271C21.1209 45.1752 22.772 45.5876 24.3642 45.8233C24.3642 45.8233 24.4822 45.8233 24.5411 45.8233L24.718 45.8822L25.1308 45.9411Z" fill="white"/>
<path d="M27.0155 33C26.8402 33 26.4894 32.8269 26.314 32.7115C26.1386 32.5385 26.0217 32.1923 26.0217 31.9615C26.0217 30.5769 26.4309 29.25 27.1325 28.2115C27.6002 27.5769 28.0094 27.1154 28.4187 26.7692C28.7694 26.4808 29.1202 26.25 29.4125 26.0192C29.5879 25.9038 29.7633 25.7885 29.9387 25.6731L29.9972 25.6154L30.1141 25.5577C30.4064 25.3269 30.6402 25.0962 30.8741 24.8077L30.9326 24.75L30.991 24.6923C31.1664 24.4038 31.4003 24.1154 31.5172 23.7692L31.5756 23.7115L31.6341 23.5962C31.751 23.25 31.868 22.9038 31.9264 22.5577V22.5V22.3846C31.9264 22.2692 31.9264 22.2115 31.9264 22.0962C31.9264 21.8077 31.9264 21.5769 31.9264 21.2885V21.2308V21.1154C31.868 20.7692 31.751 20.4231 31.6341 20.0769V20.0192L31.5756 19.9038C31.4003 19.5577 31.2249 19.2692 31.0495 18.9808L30.991 18.9231L30.8741 18.8654C30.7572 18.75 30.6402 18.5769 30.5233 18.4615L30.2895 18.2308L29.9972 18H29.9387C29.6464 17.8269 29.3541 17.6538 29.0033 17.4808L28.9448 17.4231L28.8279 17.3654C28.4771 17.25 28.1263 17.1346 27.7756 17.0769H27.7171H27.6002C27.4248 17.0769 27.2494 17.0769 27.0155 17.0769C26.7817 17.0769 26.6648 17.0769 26.4309 17.0769H26.3725H26.2555C25.9048 17.1346 25.554 17.25 25.2032 17.3654H25.1447L25.0278 17.4231C24.677 17.5962 24.3847 17.7692 24.0924 17.9423L24.0339 18L23.9755 18.0577C23.8585 18.1731 23.6832 18.2885 23.5662 18.4038L23.3324 18.6346L23.0985 18.9231L23.0401 18.9808C22.8647 19.2692 22.6893 19.5577 22.5139 19.9038L22.4554 19.9615L22.397 20.0769C22.2801 20.4231 22.1631 20.7692 22.1047 21.1154V21.1731V21.2885C22.1047 21.4615 22.1047 21.6346 22.1047 21.8654C22.1047 22.4423 21.637 22.9038 20.9939 22.9038C20.76 22.9038 20.4677 22.7885 20.2923 22.6154C20.1169 22.4423 20 22.0962 20 21.8654C20 20.7692 20.2923 19.6731 20.8185 18.6346C21.2277 17.7692 21.9877 17.0192 22.9816 16.2115C23.6247 15.75 24.4432 15.3462 25.2617 15.1731C25.7878 15.0577 26.3725 15 26.9571 15C27.4248 15 27.951 15.0577 28.4771 15.1154C29.2371 15.2308 30.0556 15.5769 30.7572 16.0385C31.6341 16.6154 32.3357 17.3077 32.9203 18.1731C33.2126 18.5769 33.388 19.0385 33.5634 19.5577C33.6803 19.8462 33.7972 20.1923 33.8557 20.4808C34.0896 21.6923 34.0311 22.7885 33.7388 23.7692C33.4465 24.75 32.9203 25.7308 32.1603 26.5962C31.8095 27 31.3418 27.3462 30.9326 27.6346C30.8156 27.75 30.6402 27.8077 30.5233 27.9231V27.8654C30.4064 27.9231 30.2895 28.0385 30.1141 28.0962L30.0556 28.1538C30.0556 28.1538 29.9972 28.2115 29.9387 28.2692L29.8218 28.3269L29.5879 28.5L29.6464 28.5577C29.5294 28.6731 29.3541 28.8462 29.2371 28.9615L29.1787 29.0192L29.1202 29.0769C28.9448 29.3654 28.711 29.6538 28.594 30L28.5356 30.0577L28.4771 30.1731C28.3602 30.5192 28.2433 30.8654 28.1848 31.2115V31.2692C28.1848 31.2692 28.1848 31.3846 28.1848 31.4423L28.1263 31.6154L28.0679 31.9038H28.1263C28.1848 32.5385 27.6586 33 27.0155 33Z" fill="#03A2FD"/>
<path d="M26.9787 40C26.7234 40 26.4681 39.875 26.2553 39.6667C26.0851 39.5417 26 39.25 26 38.9583C26 38.75 26.1277 38.4583 26.2979 38.2917C26.4681 38.125 26.766 38 27.0213 38C27.2766 38 27.5319 38.0833 27.7447 38.2917C27.9149 38.4167 28 38.7083 28 39C28 39.2083 27.8723 39.5 27.7021 39.6667C27.5319 39.9167 27.234 40 26.9787 40Z" fill="#03A2FD"/>
</svg>
