<svg width="38" height="38" viewBox="0 0 38 38" fill="none" xmlns="http://www.w3.org/2000/svg">
<path d="M22.4802 37.953V34.8529C22.4802 33.5847 23.2327 32.5043 24.4084 31.9876C24.7847 31.8467 25.2079 31.7528 25.5842 31.7528C26.3837 31.7528 27.1832 32.0816 27.7475 32.6452L29.9579 34.8529L34.896 29.9209L32.6856 27.7132C31.7921 26.8208 31.5099 25.5056 32.0272 24.3313C32.4975 23.157 33.6262 22.4524 34.896 22.4524H38V15.4536H34.896C33.6262 15.4536 32.5446 14.7021 32.0272 13.5278C31.5569 12.3535 31.7921 11.0853 32.6856 10.1459L34.896 7.93819L30.005 3.10012L27.7946 5.30779C27.1832 5.87145 26.4307 6.20025 25.6312 6.20025C25.2079 6.20025 24.8317 6.1063 24.4084 5.96539C23.2327 5.49567 22.5272 4.36836 22.5272 3.10012V0H15.5198V3.10012C15.5198 4.36836 14.7673 5.4487 13.5916 5.96539C13.2153 6.1063 12.7921 6.20025 12.4158 6.20025C11.6163 6.20025 10.8168 5.87145 10.2525 5.30779L8.04208 3.10012L3.10396 7.98517L5.31436 10.1928C6.20792 11.0853 6.4901 12.4005 5.97277 13.5748C5.50247 14.7491 4.42079 15.4536 3.15099 15.4536H0V22.4524H3.10396C4.37376 22.4524 5.45544 23.204 5.97277 24.3782C6.44307 25.5525 6.20792 26.8208 5.31436 27.7602L3.10396 29.9679L8.04208 34.8999L10.2525 32.6922C10.8168 32.1286 11.6163 31.7998 12.4158 31.7998C12.8391 31.7998 13.2153 31.8937 13.6386 32.0346C14.8144 32.5043 15.5198 33.6316 15.5198 34.8999V38L22.4802 37.953Z" fill="white"/>
<path d="M19.5 27C15.3886 27 12 23.6566 12 19.5C12 15.3434 15.3886 12 19.5 12C23.6114 12 27 15.3434 27 19.5C27 23.6566 23.6566 27 19.5 27Z" fill="white"/>
</svg>
