<svg width="44" height="43" viewBox="0 0 44 43" fill="none" xmlns="http://www.w3.org/2000/svg">
<path d="M22.028 0C10.1444 0 0.501953 9.64243 0.501953 21.5261C0.501953 33.3576 10.1444 43 21.9759 43C33.8074 43 43.4498 33.3576 43.4498 21.5261C43.502 9.64243 33.8595 0 22.028 0ZM37.0389 17.5127L28.5953 23.663L31.8268 33.5661C31.931 33.9309 31.8268 34.3479 31.5141 34.5564C31.3577 34.6606 31.1492 34.7127 30.9929 34.7127C30.8365 34.7127 30.628 34.6606 30.4716 34.5564L22.028 28.4582L13.5844 34.5564C13.2716 34.7649 12.8547 34.7649 12.542 34.5564C12.2292 34.3479 12.0729 33.9309 12.2292 33.5661L15.4607 23.663L6.96498 17.5127C6.65226 17.3042 6.49589 16.8873 6.65226 16.5224C6.7565 16.1576 7.12135 15.897 7.4862 15.897H17.9104L21.142 5.99394C21.2462 5.62909 21.611 5.36848 21.9759 5.36848C22.3407 5.36848 22.7056 5.62909 22.8098 5.99394L26.0413 15.897H36.4656C36.8304 15.897 37.1953 16.1576 37.2995 16.5224C37.508 16.8873 37.3516 17.3042 37.0389 17.5127Z" fill="white"/>
</svg>
