<svg width="44" height="42" viewBox="0 0 44 42" fill="none" xmlns="http://www.w3.org/2000/svg">
<path d="M35.6743 34.8135C35.2009 34.8135 34.8136 34.4262 34.8136 33.9529V30.7685C34.8136 29.6496 35.4591 28.6598 36.4489 28.2295L36.7071 28.1004V19.7951L33.0923 21.1721V28.2295C33.0923 28.5307 32.9202 28.832 32.662 29.0041C29.2194 30.7685 25.3894 31.7152 21.5165 31.7152C17.6435 31.7152 13.8136 30.7685 10.371 28.9611C10.1128 28.832 9.94068 28.5307 9.94068 28.2295V21.1721L2.15174 18.1598C1.93658 18.0738 1.72142 17.9016 1.63535 17.6435C1.54928 17.4283 1.54928 17.1701 1.63535 16.9549C1.72142 16.7398 1.89355 16.5676 2.10871 16.4816L19.3218 9.89755C20.0104 9.63935 20.7419 9.51025 21.5165 9.51025C22.2481 9.51025 22.9796 9.63935 23.7112 9.89755L40.9243 16.4816C41.1395 16.5676 41.3546 16.7398 41.4407 16.998C41.6128 17.4283 41.3976 17.9447 40.9243 18.1168L38.4714 19.0635V28.0574L38.7296 28.1865C39.7194 28.6168 40.4079 29.6496 40.4079 30.7254V33.8668C40.4079 34.3402 40.0206 34.7275 39.5472 34.7275H35.6743V34.8135Z" fill="white"/>
<path d="M11.7051 27.6701L11.9633 27.7992C14.9756 29.2193 18.203 29.9508 21.5166 29.9939C24.8301 29.9508 28.0575 29.2193 31.0698 27.7992L31.328 27.6701V21.8176L23.7112 24.7439C23.0227 25.0021 22.2911 25.1312 21.5166 25.1312C20.785 25.1312 20.0534 25.0021 19.3219 24.7439L11.7051 21.8176V27.6701Z" fill="#03A2FD"/>
<path d="M21.5164 11.3176C21 11.3176 20.4836 11.4037 19.9672 11.6189L4.90576 17.3853L19.9672 23.1516C20.4836 23.3238 21 23.4529 21.5164 23.4529C22.0328 23.4529 22.5492 23.3668 23.0656 23.1516L38.1271 17.3853L23.0656 11.6189C22.5492 11.4037 22.0328 11.3176 21.5164 11.3176Z" fill="white"/>
<path d="M37.5675 29.7787C37.0511 29.7787 36.5777 30.166 36.5347 30.7254V30.7684V33.0492H38.6002V30.7254V30.6824C38.5572 30.209 38.1699 29.8217 37.6535 29.7357C37.6535 29.7787 37.6105 29.7787 37.5675 29.7787Z" fill="#03A2FD"/>
</svg>
