<svg width="745" height="284" viewBox="0 0 745 284" fill="none" xmlns="http://www.w3.org/2000/svg">
<path d="M720 32C706.511 32 695.659 17.3308 695.23 16.7118C694.923 16.2785 694.923 15.7215 695.23 15.2882C695.659 14.6692 706.511 0 720 0C733.489 0 744.341 14.6692 744.77 15.2882C745.077 15.7215 745.077 16.2785 744.77 16.7118C744.341 17.3308 733.489 32 720 32ZM720 2.41393C710.006 2.41393 701.3 11.6364 698.05 15.5977L697.744 15.9691L698.05 16.3404C701.3 20.3017 709.945 29.5242 720 29.5242C730.055 29.5242 738.7 20.3017 741.95 16.3404L742.256 15.9691L741.95 15.5977C738.7 11.6364 730.055 2.41393 720 2.41393Z" fill="#FF9900"/>
<path d="M719.5 26C713.722 26 709 21.2781 709 15.5C709 9.72189 713.722 5 719.5 5C725.278 5 730 9.72189 730 15.5C730 21.2781 725.278 26 719.5 26ZM719.251 7.48521C714.902 7.48521 711.361 10.9024 711.237 15.2515C711.112 19.6627 714.592 23.3905 719.003 23.5769C719.065 23.5769 719.189 23.5769 719.251 23.5769C723.601 23.5769 727.142 20.1598 727.266 15.8107C727.266 15.7485 727.266 15.6243 727.266 15.5621C727.328 11.213 723.849 7.60947 719.5 7.54734C719.438 7.48521 719.376 7.48521 719.251 7.48521Z" fill="#FF9900"/>
<circle cx="19.5" cy="264.5" r="19.5" fill="white"/>
</svg>
