<svg width="42" height="42" viewBox="0 0 42 42" fill="none" xmlns="http://www.w3.org/2000/svg">
<path d="M17.3077 42C16.1538 42 15.1846 41.0318 15.1846 39.8793V36.5598C15.1846 36.1449 14.9077 36.0066 14.7692 35.9605C14.7231 35.9605 14.6308 35.9144 14.4923 35.9144C14.3077 35.9144 14.1692 35.9605 14.0308 36.0988L11.6769 38.4501C11.2615 38.865 10.7538 39.0494 10.2 39.0494C9.64615 39.0494 9.09231 38.8189 8.72308 38.4501L3.55385 33.1943C2.72308 32.3644 2.72308 31.0274 3.55385 30.1976L5.90769 27.8463C6.18462 27.5697 6.09231 27.247 6.04615 27.1087C6 26.9704 5.81539 26.6937 5.44615 26.6937H2.12308C0.969231 26.6937 0 25.7256 0 24.573V17.1965C0 16.6432 0.230769 16.09 0.6 15.7212C0.969231 15.3063 1.52308 15.1218 2.07692 15.1218H5.4C5.81538 15.1218 5.95385 14.8452 6 14.7069C6.04615 14.5686 6.13846 14.2459 5.86154 13.9693L3.50769 11.618C2.67692 10.7881 2.67692 9.45115 3.50769 8.6213L8.72308 3.41164C9.09231 2.99671 9.64615 2.81229 10.2 2.81229C10.8 2.81229 11.3077 3.04281 11.6769 3.41164L14.1231 5.8551C14.2615 5.99341 14.4 6.03952 14.5846 6.03952C14.7231 6.03952 14.8154 5.99341 14.8615 5.99341C15 5.94731 15.2769 5.7629 15.2769 5.39407V2.07464C15.2769 1.52141 15.5077 0.968167 15.8769 0.599341C16.2462 0.184413 16.8 0 17.3538 0H24.7385C25.2923 0 25.8462 0.230516 26.2154 0.599341C26.6308 1.01427 26.8154 1.52141 26.8154 2.07464V5.39407C26.8154 5.809 27.0923 5.94731 27.2308 5.99341C27.2769 5.99341 27.3692 6.03952 27.5077 6.03952C27.6923 6.03952 27.8308 5.99341 27.9692 5.8551L30.3231 3.50384C30.7385 3.08891 31.2462 2.9045 31.8 2.9045C32.3538 2.9045 32.9077 3.13502 33.2769 3.50384L38.4923 8.7135C38.9077 9.12843 39.0923 9.63557 39.0923 10.1888C39.0923 10.742 38.8615 11.2953 38.4923 11.6641L36.1385 14.0154C35.8615 14.292 35.9538 14.6147 36 14.753C36.0462 14.8913 36.2308 15.1679 36.6 15.1679H39.9231C40.4769 15.1679 41.0308 15.3985 41.4 15.7673C41.8154 16.1822 42 16.6894 42 17.2426V24.6191C42 25.7717 41.0769 26.7398 39.8769 26.7398H36.5538C36.1385 26.7398 36 27.0165 35.9538 27.1548C35.9077 27.2931 35.8154 27.6158 36.0923 27.8924L38.4462 30.2437C39.2769 31.0735 39.2769 32.4105 38.4462 33.2404L33.2769 38.4501C32.8615 38.865 32.3538 39.0494 31.8 39.0494C31.2462 39.0494 30.6923 38.8189 30.3231 38.4501L27.9692 36.0988C27.8308 35.9605 27.6923 35.9144 27.5077 35.9144C27.3692 35.9144 27.2769 35.9605 27.2308 35.9605C27.0923 36.0066 26.8154 36.191 26.8154 36.5598V39.8793C26.8154 40.4325 26.5846 40.9857 26.2154 41.3546C25.8462 41.7695 25.2923 41.9539 24.7385 41.9539L17.3077 42Z" fill="white"/>
<path d="M24.4802 39.953V36.8529C24.4802 35.5847 25.2327 34.5043 26.4084 33.9876C26.7847 33.8467 27.2079 33.7528 27.5842 33.7528C28.3837 33.7528 29.1832 34.0816 29.7475 34.6452L31.9579 36.8529L36.896 31.9209L34.6856 29.7132C33.7921 28.8208 33.5099 27.5056 34.0272 26.3313C34.4975 25.157 35.6262 24.4524 36.896 24.4524H40V17.4536H36.896C35.6262 17.4536 34.5446 16.7021 34.0272 15.5278C33.5569 14.3535 33.7921 13.0853 34.6856 12.1459L36.896 9.93819L32.005 5.10012L29.7946 7.30779C29.1832 7.87145 28.4307 8.20025 27.6312 8.20025C27.2079 8.20025 26.8317 8.1063 26.4084 7.96539C25.2327 7.49567 24.5272 6.36836 24.5272 5.10012V2H17.5198V5.10012C17.5198 6.36836 16.7673 7.4487 15.5916 7.96539C15.2153 8.1063 14.7921 8.20025 14.4158 8.20025C13.6163 8.20025 12.8168 7.87145 12.2525 7.30779L10.0421 5.10012L5.10396 9.98517L7.31436 12.1928C8.20792 13.0853 8.4901 14.4005 7.97277 15.5748C7.50247 16.7491 6.42079 17.4536 5.15099 17.4536H2V24.4524H5.10396C6.37376 24.4524 7.45544 25.204 7.97277 26.3782C8.44307 27.5525 8.20792 28.8208 7.31436 29.7602L5.10396 31.9679L10.0421 36.8999L12.2525 34.6922C12.8168 34.1286 13.6163 33.7998 14.4158 33.7998C14.8391 33.7998 15.2153 33.8937 15.6386 34.0346C16.8144 34.5043 17.5198 35.6316 17.5198 36.8999V40L24.4802 39.953Z" fill="white"/>
<path d="M21.5 29C17.3886 29 14 25.6566 14 21.5C14 17.3434 17.3886 14 21.5 14C25.6114 14 29 17.3434 29 21.5C29 25.6566 25.6566 29 21.5 29Z" fill="white"/>
<path d="M21.5 16C18.4605 16 16 18.4605 16 21.5C16 24.5395 18.4605 27 21.5 27C24.5395 27 27 24.5395 27 21.5C27 18.4605 24.5395 16 21.5 16Z" fill="#03a2fd"/>
</svg>
