<svg width="45" height="42" viewBox="0 0 45 42" fill="none" xmlns="http://www.w3.org/2000/svg">
<path d="M43.7879 19.9993H42.3442C42.0648 15.2957 40.2019 10.7317 37.1283 7.2389C33.8217 3.4201 29.0715 0.858704 24.0884 0.206713C21.6202 -0.119283 19.0588 -0.0727122 16.5905 0.439567C14.1223 0.951845 11.7937 1.9764 9.69805 3.32696C5.50668 6.02806 2.2933 10.266 0.849602 15.0162C-0.547522 19.813 -0.221526 25.0289 1.82759 29.5463C3.83013 34.0637 7.5558 37.7893 11.98 39.885C16.4508 41.9807 21.6202 42.3999 26.3238 41.0959C31.0275 39.7919 35.2189 36.7182 37.92 32.7131C38.1062 32.4337 38.0131 32.1077 37.7802 31.9214C37.5008 31.7351 37.1748 31.8283 36.9885 32.0611C34.3806 35.7868 30.3755 38.5811 25.9513 39.6988C21.527 40.863 16.7302 40.3507 12.6786 38.3482C8.62693 36.3922 5.27383 32.946 3.55071 28.7546C1.78102 24.6098 1.54816 19.8596 2.89872 15.5751C4.24927 11.2906 7.18323 7.61147 10.9555 5.28293C12.8183 4.11866 14.914 3.28039 17.1028 2.86125C19.2916 2.44211 21.527 2.39554 23.7159 2.76811C28.0935 3.4201 32.1452 5.70207 34.9394 9.10174C37.5474 12.1754 39.0377 16.0408 39.2705 19.9993H37.8268C37.5008 19.9993 37.268 20.3719 37.4543 20.6979L40.4348 25.6344C40.6211 25.9138 41.0402 25.9138 41.1799 25.6344L44.1604 20.6979C44.3467 20.3719 44.1604 19.9993 43.7879 19.9993Z" fill="white"/>
<path d="M20.9214 6.8197C13.0044 6.8197 6.57764 13.2465 6.57764 21.1635C6.57764 29.0805 13.0044 35.5073 20.9214 35.5073C28.8385 35.5073 35.2652 29.0805 35.2652 21.1635C35.3118 13.2465 28.885 6.8197 20.9214 6.8197ZM26.3237 22.7003H20.9214C20.0366 22.7003 19.338 22.0018 19.338 21.1169V13.619C19.338 12.7342 20.0366 12.0356 20.9214 12.0356C21.8063 12.0356 22.5048 12.7342 22.5048 13.619V19.5801H26.3237C27.2085 19.5801 27.9071 20.2787 27.9071 21.1635C27.9071 22.0484 27.2085 22.7003 26.3237 22.7003Z" fill="white"/>
</svg>
