<svg width="45" height="35" viewBox="0 0 45 35" fill="none" xmlns="http://www.w3.org/2000/svg">
<path d="M6.98276 35C6.77586 35 6.56897 34.8987 6.41379 34.7974C6.25862 34.6454 6.2069 34.4428 6.2069 34.2402V28.8712H2.84483C1.2931 28.8712 0 27.6049 0 26.0854V7.85094C0 6.3314 1.2931 5.06512 2.84483 5.06512H13.4483V2.78582C13.4483 1.26628 14.7414 0 16.2931 0H42.1552C43.7069 0 45 1.26628 45 2.78582V21.0203C45 22.5398 43.7069 23.8061 42.1552 23.8061H38.7931V29.1245C38.7931 29.2764 38.7414 29.479 38.6379 29.5803C38.4828 29.7829 38.2759 29.8842 38.0172 29.8842C37.8621 29.8842 37.7069 29.8336 37.5517 29.7323L31.7586 25.4776L31.5 26.6425C31.2414 27.9088 30.0517 28.8712 28.7069 28.8712H15.5172L7.44828 34.848C7.2931 34.8987 7.13793 35 6.98276 35ZM2.84483 6.58466C2.12069 6.58466 1.55172 7.14182 1.55172 7.85094V26.0854C1.55172 26.7945 2.12069 27.3517 2.84483 27.3517H6.98276C7.39655 27.3517 7.75862 27.7062 7.75862 28.1114V32.67L14.7931 27.5036C14.9483 27.4023 15.1034 27.3517 15.2586 27.3517H28.7069C29.431 27.3517 30 26.7945 30 26.0854V7.85094C30 7.14182 29.431 6.58466 28.7069 6.58466H2.84483ZM16.2931 1.51954C15.569 1.51954 15 2.0767 15 2.78582V5.06512H28.7069C30.2586 5.06512 31.5517 6.3314 31.5517 7.85094V23.4515L37.2414 27.6049V23.0463C37.2414 22.6411 37.6034 22.2865 38.0172 22.2865H42.1552C42.8793 22.2865 43.4483 21.7294 43.4483 21.0203V2.78582C43.4483 2.0767 42.8793 1.51954 42.1552 1.51954H16.2931ZM23.0172 18.2344C22.2931 18.2344 21.7241 17.6773 21.7241 16.9682C21.7241 16.259 22.2931 15.7019 23.0172 15.7019C23.7414 15.7019 24.3103 16.259 24.3103 16.9682C24.3103 17.6773 23.7414 18.2344 23.0172 18.2344ZM15.7759 18.2344C15.0517 18.2344 14.4828 17.6773 14.4828 16.9682C14.4828 16.259 15.0517 15.7019 15.7759 15.7019C16.5 15.7019 17.069 16.259 17.069 16.9682C17.069 17.6773 16.5 18.2344 15.7759 18.2344ZM8.53448 18.2344C7.81034 18.2344 7.24138 17.6773 7.24138 16.9682C7.24138 16.259 7.81034 15.7019 8.53448 15.7019C9.25862 15.7019 9.82759 16.259 9.82759 16.9682C9.82759 17.6773 9.25862 18.2344 8.53448 18.2344Z" fill="#FF9900"/>
</svg>
