<svg width="42" height="42" viewBox="0 0 42 42" fill="none" xmlns="http://www.w3.org/2000/svg">
<path d="M21 42C9.40227 42 0 32.55 0 21C0 9.40227 9.45 0 21 0C32.5977 0 42 9.45 42 21C42 32.5977 32.5977 42 21 42ZM6.34773 33.5045C10.0227 37.8 15.3682 40.2818 21 40.2818C26.6318 40.2818 31.9773 37.8 35.6523 33.5045C34.7455 32.2159 31.3091 28.8273 21 28.8273C10.6909 28.7795 7.25454 32.2159 6.34773 33.5045ZM21 27.0614C30.9273 27.0614 35.0795 30.0682 36.75 32.0727C39.0409 28.7795 40.2818 25.0091 40.2818 21C40.2818 10.3568 31.6432 1.71818 21 1.71818C10.3568 1.71818 1.71818 10.3568 1.71818 21C1.71818 24.9614 2.91136 28.7795 5.25 32.0727C6.92045 30.0682 11.0727 27.0614 21 27.0614Z" fill="#4B5BEA"/>
<path d="M21 26C15.4776 26 11 21.5224 11 16C11 10.4776 15.4776 6 21 6C26.5224 6 31 10.4776 31 16C31 21.5224 26.5224 26 21 26ZM21 7.79104C16.4726 7.79104 12.791 11.4726 12.791 16C12.791 20.5274 16.4726 24.209 21 24.209C25.5274 24.209 29.209 20.5274 29.209 16C29.209 11.4726 25.5274 7.79104 21 7.79104Z" fill="#4B5BEA"/>
</svg>
