<svg width="20" height="20" viewBox="0 0 20 20" fill="none" xmlns="http://www.w3.org/2000/svg">
<path d="M7.875 19.6014C7.35 19.6014 6.909 19.1496 6.909 18.6117V17.0625C6.909 16.8689 6.783 16.8043 6.72 16.7828C6.699 16.7828 6.657 16.7613 6.594 16.7613C6.51 16.7613 6.447 16.7828 6.384 16.8473L5.313 17.9447C5.124 18.1383 4.893 18.2244 4.641 18.2244C4.389 18.2244 4.137 18.1168 3.969 17.9447L1.617 15.4918C1.239 15.1045 1.239 14.4805 1.617 14.0932L2.688 12.9959C2.814 12.8668 2.772 12.7162 2.751 12.6516C2.73 12.5871 2.646 12.458 2.478 12.458H0.966C0.441 12.458 0 12.0061 0 11.4682V8.02561C0 7.76742 0.105 7.50922 0.273 7.33709C0.441 7.14344 0.693 7.05738 0.945 7.05738H2.457C2.646 7.05738 2.709 6.92828 2.73 6.86373C2.751 6.79918 2.793 6.64856 2.667 6.51947L1.596 5.42213C1.218 5.03484 1.218 4.41086 1.596 4.02357L3.969 1.59221C4.137 1.39857 4.389 1.3125 4.641 1.3125C4.914 1.3125 5.145 1.42008 5.313 1.59221L6.426 2.73258C6.489 2.79713 6.552 2.81865 6.636 2.81865C6.699 2.81865 6.741 2.79713 6.762 2.79713C6.825 2.77561 6.951 2.68955 6.951 2.51742V0.968238C6.951 0.710041 7.056 0.451844 7.224 0.279713C7.392 0.0860656 7.644 0 7.896 0H11.256C11.508 0 11.76 0.107582 11.928 0.279713C12.117 0.473361 12.201 0.710041 12.201 0.968238V2.51742C12.201 2.71107 12.327 2.77561 12.39 2.79713C12.411 2.79713 12.453 2.81865 12.516 2.81865C12.6 2.81865 12.663 2.79713 12.726 2.73258L13.797 1.63525C13.986 1.4416 14.217 1.35553 14.469 1.35553C14.721 1.35553 14.973 1.46311 15.141 1.63525L17.514 4.0666C17.703 4.26025 17.787 4.49693 17.787 4.75512C17.787 5.01332 17.682 5.27152 17.514 5.44365L16.443 6.54098C16.317 6.67008 16.359 6.8207 16.38 6.88525C16.401 6.94979 16.485 7.07889 16.653 7.07889H18.165C18.417 7.07889 18.669 7.18648 18.837 7.35861C19.026 7.55225 19.11 7.78893 19.11 8.04713V11.4898C19.11 12.0277 18.69 12.4795 18.144 12.4795H16.632C16.443 12.4795 16.38 12.6086 16.359 12.6732C16.338 12.7377 16.296 12.8883 16.422 13.0174L17.493 14.1148C17.871 14.502 17.871 15.126 17.493 15.5133L15.141 17.9447C14.952 18.1383 14.721 18.2244 14.469 18.2244C14.217 18.2244 13.965 18.1168 13.797 17.9447L12.726 16.8473C12.663 16.7828 12.6 16.7613 12.516 16.7613C12.453 16.7613 12.411 16.7828 12.39 16.7828C12.327 16.8043 12.201 16.8904 12.201 17.0625V18.6117C12.201 18.8699 12.096 19.1281 11.928 19.3002C11.76 19.4939 11.508 19.5799 11.256 19.5799L7.875 19.6014Z" fill="#4B5BEA"/>
<path d="M11.1298 18.4825V17.0625C11.1298 16.4815 11.4658 15.9866 11.9908 15.75C12.1588 15.6854 12.3478 15.6424 12.5158 15.6424C12.8728 15.6424 13.2298 15.793 13.4818 16.0512L14.4688 17.0625L16.6738 14.8032L15.6868 13.792C15.2878 13.3832 15.1618 12.7807 15.3928 12.2428C15.6028 11.7049 16.1068 11.3821 16.6738 11.3821H18.0598V8.17618H16.6738C16.1068 8.17618 15.6238 7.83192 15.3928 7.29401C15.1828 6.7561 15.2878 6.17516 15.6868 5.74483L16.6738 4.73356L14.4898 2.51737L13.5028 3.52864C13.2298 3.78684 12.8938 3.93745 12.5368 3.93745C12.3478 3.93745 12.1798 3.89442 11.9908 3.82987C11.4658 3.61471 11.1508 3.09831 11.1508 2.51737V1.09729H8.0218V2.51737C8.0218 3.09831 7.6858 3.59319 7.1608 3.82987C6.9928 3.89442 6.8038 3.93745 6.6358 3.93745C6.2788 3.93745 5.9218 3.78684 5.6698 3.52864L4.6828 2.51737L2.4778 4.75508L3.4648 5.76635C3.8638 6.17516 3.9898 6.77762 3.7588 7.31553C3.5488 7.85344 3.0658 8.17618 2.4988 8.17618H1.0918V11.3821H2.4778C3.0448 11.3821 3.5278 11.7264 3.7588 12.2643C3.9688 12.8022 3.8638 13.3832 3.4648 13.8135L2.4778 14.8247L4.6828 17.084L5.6698 16.0727C5.9218 15.8145 6.2788 15.6639 6.6358 15.6639C6.8248 15.6639 6.9928 15.7069 7.1818 15.7715C7.7068 15.9866 8.0218 16.503 8.0218 17.084V18.5041L11.1298 18.4825Z" fill="white"/>
<path d="M9.57584 13.3616C7.66484 13.3616 6.08984 11.7694 6.08984 9.78992C6.08984 7.81041 7.66484 6.2182 9.57584 6.2182C11.4868 6.2182 13.0618 7.81041 13.0618 9.78992C13.0618 11.7694 11.5078 13.3616 9.57584 13.3616Z" fill="#4B5BEA"/>
<path d="M9.57564 7.33704C8.25264 7.33704 7.18164 8.43437 7.18164 9.7899C7.18164 11.1454 8.25264 12.2428 9.57564 12.2428C10.8986 12.2428 11.9696 11.1454 11.9696 9.7899C11.9696 8.43437 10.8986 7.33704 9.57564 7.33704Z" fill="white"/>
</svg>
