<svg width="38" height="38" viewBox="0 0 38 38" fill="none" xmlns="http://www.w3.org/2000/svg">
<path d="M1.54188 37.6117C1.48387 37.6117 1.42588 37.6117 1.30988 37.5533C1.01988 37.4949 0.787875 37.2613 0.729875 36.9693C0.729875 36.9109 0.729875 36.8525 0.671875 36.7941V36.7357V1.6947C0.671875 1.5779 0.671875 1.5779 0.729875 1.46109C0.845875 1.16908 1.07788 0.935477 1.36788 0.877075C1.42588 0.877075 1.48387 0.877075 1.54188 0.877075H1.65788H1.71588H1.77387C1.83187 0.877075 1.88988 0.935477 1.94788 0.935477C2.12188 1.05228 2.29587 1.22749 2.35387 1.40269C2.35387 1.46109 2.41188 1.51949 2.41188 1.57789V1.6363V35.8013H36.4579H36.5739C36.6319 35.8013 36.6319 35.8013 36.6899 35.8013C36.8639 35.8597 36.9799 35.9765 37.0959 36.0933C37.2699 36.3269 37.3279 36.6773 37.2119 36.9109C37.1539 36.9693 37.1539 37.0861 37.0959 37.1445C37.0379 37.2029 36.9799 37.2613 36.9219 37.3197C36.8059 37.3781 36.6899 37.4365 36.5739 37.4365H36.3999H1.54188V37.6117Z" fill="#FF9900"/>
<path d="M4.44188 25.9898C4.38388 25.9898 4.26788 25.9898 4.20988 25.9314C3.91988 25.8146 3.68788 25.581 3.62988 25.289C3.62988 25.1722 3.62988 25.0554 3.62988 24.9385C3.62988 24.8217 3.68788 24.7049 3.80388 24.6465L3.86188 24.5881L9.66188 18.748L15.4619 12.8494L15.5199 12.791C15.5779 12.7326 15.6359 12.7326 15.6939 12.6742C15.8099 12.6158 15.9259 12.6158 16.0419 12.6158C16.1579 12.6158 16.2739 12.6158 16.3899 12.6742C16.4479 12.7326 16.5059 12.7326 16.5639 12.791L16.6799 12.9078L21.8419 18.164L27.0619 12.8494L32.9199 7.00924C32.9779 7.00924 32.9779 6.95084 32.9779 6.95084C33.0939 6.89244 33.2099 6.83404 33.3259 6.77563C33.3839 6.77563 33.4419 6.77563 33.4999 6.77563H33.6159H33.6739C33.7319 6.77563 33.7899 6.83404 33.8479 6.83404C34.0799 6.95084 34.1959 7.12604 34.2539 7.35965C34.2539 7.41805 34.2539 7.47646 34.3119 7.53486V7.59326V13.375V13.4334C34.3119 13.5502 34.2539 13.667 34.1959 13.7838C34.0219 14.0174 33.7899 14.1926 33.4999 14.1926H33.4419C33.3839 14.1926 33.3259 14.1926 33.2099 14.1342C33.0939 14.0758 32.9779 14.0174 32.9199 13.959C32.8039 13.8422 32.7459 13.7254 32.6879 13.5502C32.6879 13.4918 32.6879 13.4334 32.6879 13.375V13.3166V9.57891L31.7019 10.5717C28.1059 14.1342 27.3519 14.8935 23.8139 18.5144L22.4799 19.916L22.4219 19.9744C22.3639 20.0328 22.3059 20.0328 22.2479 20.0912C22.1319 20.1496 22.0159 20.1496 21.8999 20.1496C21.7839 20.1496 21.6679 20.1496 21.5519 20.0912C21.4939 20.0328 21.4359 20.0328 21.3779 19.9744L21.2619 19.8576L16.0999 14.6015L10.8799 19.916L5.07988 25.7562C5.02188 25.8146 4.96388 25.8146 4.90588 25.873C4.78988 25.9314 4.61588 25.9898 4.44188 25.9898Z" fill="#FF9900"/>
<path d="M31.5861 8.46927C31.0061 8.46927 30.3681 8.46927 29.7881 8.46927H29.4981C28.9181 8.46927 28.2801 8.46927 27.7001 8.46927C27.5841 8.46927 27.4681 8.46927 27.3521 8.41087C27.2361 8.35247 27.1781 8.29407 27.1201 8.23567C27.0621 8.17727 27.0041 8.11886 26.9461 8.00206C26.8301 7.71005 26.8301 7.41804 27.0041 7.12604C27.0621 7.06763 27.1201 7.00923 27.1781 6.95083C27.2941 6.89243 27.4101 6.83403 27.5261 6.77562C27.5841 6.77562 27.6421 6.77562 27.7001 6.77562C28.6861 6.71722 29.6721 6.71722 30.6581 6.71722C31.6441 6.71722 32.6301 6.71722 33.6161 6.77562C33.7901 6.77562 33.9061 6.83403 33.9641 6.89243C34.0801 6.95083 34.1381 7.00923 34.1961 7.06763C34.3701 7.30124 34.4281 7.59325 34.3701 7.88526C34.3701 7.94366 34.3121 8.06046 34.2541 8.11886C34.1961 8.17727 34.1381 8.23567 34.0801 8.29407C33.9641 8.35247 33.8481 8.41087 33.7321 8.46927C33.6741 8.46927 33.6161 8.46927 33.5581 8.46927C32.9201 8.46927 32.2241 8.46927 31.5861 8.46927Z" fill="#FF9900"/>
</svg>
