<svg width="47" height="46" viewBox="0 0 47 46" fill="none" xmlns="http://www.w3.org/2000/svg">
<path d="M6.57989 37.6107C6.34489 37.6107 6.1569 37.5164 6.0159 37.3279C3.24289 33.5574 1.69189 28.9385 1.69189 24.2726C1.69189 19.5594 3.19589 15.0349 5.96889 11.2644C6.10989 11.0758 6.34489 10.9344 6.53289 10.9344C6.72089 10.9344 6.8619 10.9816 6.9559 11.0758C7.0969 11.1701 7.19089 11.3586 7.23789 11.5472C7.28489 11.7357 7.1909 11.9242 7.09689 12.0656C4.55889 15.5533 3.10189 19.8894 3.10189 24.2726C3.10189 28.7029 4.51189 32.8976 7.09689 36.4795L7.1439 36.5267C7.2379 36.6681 7.28489 36.8566 7.23789 37.0451C7.19089 37.2336 7.0969 37.375 6.9559 37.5164C6.9089 37.5635 6.76789 37.6107 6.57989 37.6107Z" fill="white"/>
<path d="M40.4199 37.5635C40.2789 37.5635 40.1379 37.5164 39.9969 37.4221C39.8559 37.3278 39.7619 37.1393 39.7149 36.9508C39.6679 36.7623 39.7149 36.5737 39.8559 36.4324C42.4409 32.9446 43.8979 28.6086 43.8979 24.2254C43.8979 19.8422 42.4879 15.5533 39.9029 12.0184C39.8089 11.877 39.7619 11.7828 39.7619 11.6414C39.7619 11.2643 40.0439 10.9344 40.4199 10.8873H40.5139C40.7019 10.8873 40.9369 10.9815 41.0309 11.1701C43.8039 14.9405 45.3549 19.5594 45.3549 24.2254C45.3549 28.8914 43.8509 33.5102 41.0779 37.2336C40.8429 37.4692 40.6549 37.5635 40.4199 37.5635Z" fill="white"/>
<path d="M35.6728 33.416C35.5318 33.416 35.3908 33.3689 35.2968 33.2746C35.1558 33.1803 35.0618 32.9918 35.0148 32.8033C34.9678 32.6148 35.0148 32.4262 35.1088 32.2848C36.7538 29.9283 37.5998 27.1476 37.5998 24.2254C37.5998 21.3504 36.7538 18.5697 35.1088 16.166C35.0148 16.0246 34.9678 15.9303 34.9678 15.7418C34.9678 15.3648 35.2498 15.0349 35.6728 15.0349C35.9078 15.0349 36.1428 15.1291 36.2838 15.3648C38.0698 17.957 39.0568 21.0205 39.0568 24.2254C39.0568 27.4303 38.1168 30.4939 36.3308 33.0861C36.1428 33.3217 35.9078 33.416 35.6728 33.416Z" fill="white"/>
<path d="M11.3272 33.416C11.0922 33.416 10.8572 33.3217 10.7632 33.1332C8.93023 30.4939 7.99023 27.4303 7.99023 24.2725C7.99023 21.1148 8.93023 18.0512 10.7632 15.4119C10.9042 15.2234 11.0452 15.1291 11.2802 15.082C11.3272 15.082 11.3272 15.082 11.3742 15.082C11.5152 15.082 11.6562 15.1291 11.7972 15.2234C11.9382 15.3176 12.0322 15.5062 12.0792 15.6947C12.1262 15.8832 12.0792 16.0717 11.9382 16.2131C10.2932 18.6168 9.40023 21.3975 9.40023 24.2725C9.40023 27.1475 10.2462 29.9283 11.8912 32.332C11.9852 32.4734 12.0322 32.6619 11.9852 32.8504C11.9382 33.0389 11.8442 33.1803 11.7032 33.3217C11.6092 33.3689 11.4682 33.416 11.3272 33.416Z" fill="white"/>
<path d="M19.3642 32.4734C18.9882 32.4734 18.6592 32.1434 18.6592 31.7664V16.7316C18.6592 16.3545 18.9412 16.0717 19.3172 16.0246H19.3642C19.5052 16.0246 19.6462 16.0717 19.7872 16.166L30.4092 23.707C30.4562 23.7541 30.5502 23.8012 30.5502 23.8955C30.7852 24.2254 30.6912 24.6496 30.3622 24.8853L19.7872 32.332C19.6462 32.4262 19.5052 32.4734 19.3642 32.4734Z" fill="white"/>
<path d="M20.0688 30.4467L28.7638 24.2726L20.0688 18.0984V30.4467Z" fill="white"/>
</svg>
